<svg xmlns="http://www.w3.org/2000/svg" xmlns:xlink="http://www.w3.org/1999/xlink" version="1.1" x="0px" y="0px" viewBox="0 0 100 100" enable-background="new 0 0 100 100" xml:space="preserve"><path fill="#000000" d="M12.475,58.867h1.742h4.252c0.138,0,0.25-0.112,0.25-0.25v-5.023c0-0.138-0.112-0.25-0.25-0.25H4.938  c-0.138,0-0.25,0.112-0.25,0.25v5.023c0,0.138,0.112,0.25,0.25,0.25h0.965h1.742H12.475z M17.251,58.173h-1.819v-4.186h1.819V58.173  z M17.751,53.843h0.469v4.523h-0.469V53.843z M14.932,58.367h-0.465v-3.811c0-0.138-0.112-0.25-0.25-0.25h-1.742  c-0.138,0-0.25,0.112-0.25,0.25v3.811h-1.046v-4.523h3.753V58.367z M12.725,54.806h1.242v3.561h-1.242V54.806z M10.679,58.173H8.86  v-4.186h1.818V58.173z M8.36,58.367H7.895v-3.811c0-0.138-0.112-0.25-0.25-0.25H5.903c-0.138,0-0.25,0.112-0.25,0.25v3.811H5.188  v-4.523H8.36V58.367z M6.153,54.806h1.242v3.561H6.153V54.806z"></path><path fill="#000000" d="M35.864,53.259h0.972h1.735h4.837h1.735h4.256c0.138,0,0.25-0.112,0.25-0.25v-5.023  c0-0.138-0.112-0.25-0.25-0.25H35.864c-0.138,0-0.25,0.112-0.25,0.25v5.023C35.614,53.147,35.726,53.259,35.864,53.259z   M48.184,52.562h-1.819v-4.184h1.819V52.562z M48.684,48.236h0.465v4.523h-0.465V48.236z M45.865,52.759h-0.472v-3.811  c0-0.138-0.112-0.25-0.25-0.25h-1.735c-0.138,0-0.25,0.112-0.25,0.25v3.811h-1.049v-4.523h3.756V52.759z M43.658,49.199h1.235v3.561  h-1.235V49.199z M41.609,52.562H39.79v-4.184h1.819V52.562z M39.29,52.759h-0.469v-3.811c0-0.138-0.112-0.25-0.25-0.25h-1.735  c-0.138,0-0.25,0.112-0.25,0.25v3.811h-0.472v-4.523h3.176V52.759z M37.086,49.199h1.235v3.561h-1.235V49.199z"></path><path fill="#000000" d="M35.864,47.656h0.972h1.735h4.837h1.735h4.256c0.138,0,0.25-0.112,0.25-0.25v-5.188  c0-0.138-0.112-0.25-0.25-0.25H35.864c-0.138,0-0.25,0.112-0.25,0.25v5.188C35.614,47.543,35.726,47.656,35.864,47.656z   M48.184,42.775v4.186h-1.819v-4.186H48.184z M48.684,42.525c0-0.022-0.018-0.036-0.023-0.057h0.489v4.688h-0.465V42.525z   M45.865,42.525v4.631h-0.472v-3.811c0-0.138-0.112-0.25-0.25-0.25h-1.735c-0.138,0-0.25,0.112-0.25,0.25v3.811h-1.049v-4.631  c0-0.022-0.018-0.036-0.023-0.057h3.803C45.883,42.489,45.865,42.502,45.865,42.525z M43.658,43.595h1.235v3.561h-1.235V43.595z   M41.609,42.775v4.186H39.79v-4.186H41.609z M39.29,42.525v4.631h-0.469v-3.811c0-0.138-0.112-0.25-0.25-0.25h-1.735  c-0.138,0-0.25,0.112-0.25,0.25v3.811h-0.472v-4.688h3.199C39.308,42.489,39.29,42.502,39.29,42.525z M37.086,43.595h1.235v3.561  h-1.235V43.595z"></path><path fill="#000000" d="M20.401,53.259h0.965h1.742h4.83h1.742h4.253c0.138,0,0.25-0.112,0.25-0.25v-5.023  c0-0.138-0.112-0.25-0.25-0.25H20.401c-0.138,0-0.25,0.112-0.25,0.25v5.023C20.151,53.147,20.263,53.259,20.401,53.259z   M32.718,52.562h-1.823v-4.184h1.823V52.562z M33.218,48.236h0.465v4.523h-0.465V48.236z M30.395,52.759H29.93v-3.811  c0-0.138-0.112-0.25-0.25-0.25h-1.742c-0.138,0-0.25,0.112-0.25,0.25v3.811h-1.042v-4.523h3.75V52.759z M28.188,49.199h1.242v3.561  h-1.242V49.199z M26.146,52.562h-1.822v-4.184h1.822V52.562z M23.823,52.759h-0.465v-3.811c0-0.138-0.112-0.25-0.25-0.25h-1.742  c-0.138,0-0.25,0.112-0.25,0.25v3.811h-0.465v-4.523h3.172V52.759z M21.616,49.199h1.242v3.561h-1.242V49.199z"></path><path fill="#000000" d="M20.401,58.867h0.965h1.742h4.83h1.742h4.253c0.138,0,0.25-0.112,0.25-0.25v-5.023  c0-0.138-0.112-0.25-0.25-0.25H20.401c-0.138,0-0.25,0.112-0.25,0.25v5.023C20.151,58.754,20.263,58.867,20.401,58.867z   M32.718,58.173h-1.823v-4.186h1.823V58.173z M33.218,53.843h0.465v4.523h-0.465V53.843z M30.395,58.367H29.93v-3.811  c0-0.138-0.112-0.25-0.25-0.25h-1.742c-0.138,0-0.25,0.112-0.25,0.25v3.811h-1.042v-4.523h3.75V58.367z M28.188,54.806h1.242v3.561  h-1.242V54.806z M26.146,58.173h-1.822v-4.186h1.822V58.173z M23.823,58.367h-0.465v-3.811c0-0.138-0.112-0.25-0.25-0.25h-1.742  c-0.138,0-0.25,0.112-0.25,0.25v3.811h-0.465v-4.523h3.172V58.367z M21.616,54.806h1.242v3.561h-1.242V54.806z"></path><path fill="#000000" d="M4.938,47.656h0.965h1.742h4.83h1.742h4.252c0.138,0,0.25-0.112,0.25-0.25v-5.188  c0-0.138-0.112-0.25-0.25-0.25H4.938c-0.138,0-0.25,0.112-0.25,0.25v5.188C4.688,47.543,4.8,47.656,4.938,47.656z M17.251,42.775  v4.186h-1.819v-4.186H17.251z M17.751,42.525c0-0.022-0.018-0.036-0.023-0.057h0.492v4.688h-0.469V42.525z M14.932,42.525v4.631  h-0.465v-3.811c0-0.138-0.112-0.25-0.25-0.25h-1.742c-0.138,0-0.25,0.112-0.25,0.25v3.811h-1.046v-4.631  c0-0.022-0.018-0.036-0.023-0.057h3.8C14.95,42.489,14.932,42.502,14.932,42.525z M12.725,43.595h1.242v3.561h-1.242V43.595z   M10.679,42.775v4.186H8.86v-4.186H10.679z M8.36,42.525v4.631H7.895v-3.811c0-0.138-0.112-0.25-0.25-0.25H5.903  c-0.138,0-0.25,0.112-0.25,0.25v3.811H5.188v-4.688h3.196C8.378,42.489,8.36,42.502,8.36,42.525z M6.153,43.595h1.242v3.561H6.153  V43.595z"></path><path fill="#000000" d="M4.938,53.259h0.965h1.742h4.83h1.742h4.252c0.138,0,0.25-0.112,0.25-0.25v-5.023  c0-0.138-0.112-0.25-0.25-0.25H4.938c-0.138,0-0.25,0.112-0.25,0.25v5.023C4.688,53.147,4.8,53.259,4.938,53.259z M17.251,52.562  h-1.819v-4.184h1.819V52.562z M17.751,48.236h0.469v4.523h-0.469V48.236z M14.932,52.759h-0.465v-3.811  c0-0.138-0.112-0.25-0.25-0.25h-1.742c-0.138,0-0.25,0.112-0.25,0.25v3.811h-1.046v-4.523h3.753V52.759z M12.725,49.199h1.242v3.561  h-1.242V49.199z M10.679,52.562H8.86v-4.184h1.818V52.562z M8.36,52.759H7.895v-3.811c0-0.138-0.112-0.25-0.25-0.25H5.903  c-0.138,0-0.25,0.112-0.25,0.25v3.811H5.188v-4.523H8.36V52.759z M6.153,49.199h1.242v3.561H6.153V49.199z"></path><path fill="#000000" d="M35.864,58.867h0.972h1.735h4.837h1.735h4.256c0.138,0,0.25-0.112,0.25-0.25v-5.023  c0-0.138-0.112-0.25-0.25-0.25H35.864c-0.138,0-0.25,0.112-0.25,0.25v5.023C35.614,58.754,35.726,58.867,35.864,58.867z   M48.184,58.173h-1.819v-4.186h1.819V58.173z M48.684,53.843h0.465v4.523h-0.465V53.843z M45.865,58.367h-0.472v-3.811  c0-0.138-0.112-0.25-0.25-0.25h-1.735c-0.138,0-0.25,0.112-0.25,0.25v3.811h-1.049v-4.523h3.756V58.367z M43.658,54.806h1.235v3.561  h-1.235V54.806z M41.609,58.173H39.79v-4.186h1.819V58.173z M39.29,58.367h-0.469v-3.811c0-0.138-0.112-0.25-0.25-0.25h-1.735  c-0.138,0-0.25,0.112-0.25,0.25v3.811h-0.472v-4.523h3.176V58.367z M37.086,54.806h1.235v3.561h-1.235V54.806z"></path><path fill="#000000" d="M80.329,47.736H66.796c-0.138,0-0.25,0.112-0.25,0.25v5.023c0,0.138,0.112,0.25,0.25,0.25h0.619h1.741h4.831  h1.741h4.6c0.139,0,0.25-0.112,0.25-0.25v-5.023C80.579,47.848,80.467,47.736,80.329,47.736z M74.238,49.199h1.241v3.561h-1.241  V49.199z M75.979,48.949c0-0.138-0.111-0.25-0.25-0.25h-1.741c-0.138,0-0.25,0.112-0.25,0.25v3.811h-1.042v-4.523h3.749v4.523  h-0.466V48.949z M67.666,49.199h1.241v3.561h-1.241V49.199z M69.407,48.949c0-0.138-0.111-0.25-0.25-0.25h-1.741  c-0.138,0-0.25,0.112-0.25,0.25v3.811h-0.119v-4.523h2.826v4.523h-0.466V48.949z M70.373,48.423h1.823v4.139h-1.823V48.423z   M76.945,48.423h1.822v4.139h-1.822V48.423z M79.267,48.236h0.812v4.523h-0.812V48.236z"></path><path fill="#000000" d="M95.794,42.125H82.266c-0.139,0-0.25,0.112-0.25,0.25v5.031c0,0.138,0.111,0.25,0.25,0.25h0.965h1.735h4.837  h1.742h4.249c0.138,0,0.25-0.112,0.25-0.25v-5.031C96.044,42.237,95.932,42.125,95.794,42.125z M90.053,43.595h1.242v3.561h-1.242  V43.595z M91.795,43.345c0-0.138-0.112-0.25-0.25-0.25h-1.742c-0.139,0-0.25,0.112-0.25,0.25v3.811h-1.047v-4.531h3.754v4.531  h-0.465V43.345z M83.481,43.595h1.235v3.561h-1.235V43.595z M85.216,43.345c0-0.138-0.112-0.25-0.25-0.25h-1.735  c-0.138,0-0.25,0.112-0.25,0.25v3.811h-0.465v-4.531h3.172v4.531h-0.472V43.345z M86.188,42.822h1.818v4.139h-1.818V42.822z   M92.76,42.822h1.818v4.139H92.76V42.822z M95.079,42.625h0.466v4.531h-0.466V42.625z"></path><path fill="#000000" d="M64.866,53.343H51.333c-0.138,0-0.25,0.112-0.25,0.25v5.023c0,0.138,0.112,0.25,0.25,0.25h0.619h1.742h4.83  h1.741h4.6c0.138,0,0.25-0.112,0.25-0.25v-5.023C65.116,53.456,65.003,53.343,64.866,53.343z M58.775,54.806h1.241v3.561h-1.241  V54.806z M60.516,54.556c0-0.138-0.111-0.25-0.25-0.25h-1.741c-0.138,0-0.25,0.112-0.25,0.25v3.811h-1.046v-4.523h3.753v4.523  h-0.466V54.556z M52.203,54.806h1.242v3.561h-1.242V54.806z M53.945,54.556c0-0.138-0.112-0.25-0.25-0.25h-1.742  c-0.138,0-0.25,0.112-0.25,0.25v3.811h-0.119v-4.523h2.826v4.523h-0.465V54.556z M54.91,54.041h1.819v4.133H54.91V54.041z   M61.482,54.041h1.819v4.133h-1.819V54.041z M63.801,53.843h0.814v4.523h-0.814V53.843z"></path><path fill="#000000" d="M95.794,53.337H82.266c-0.139,0-0.25,0.112-0.25,0.25v5.029c0,0.138,0.111,0.25,0.25,0.25h0.965h1.735h4.837  h1.742h4.249c0.138,0,0.25-0.112,0.25-0.25v-5.029C96.044,53.45,95.932,53.337,95.794,53.337z M90.053,54.806h1.242v3.561h-1.242  V54.806z M91.795,54.556c0-0.138-0.112-0.25-0.25-0.25h-1.742c-0.139,0-0.25,0.112-0.25,0.25v3.811h-1.047v-4.529h3.754v4.529  h-0.465V54.556z M83.481,54.806h1.235v3.561h-1.235V54.806z M85.216,54.556c0-0.138-0.112-0.25-0.25-0.25h-1.735  c-0.138,0-0.25,0.112-0.25,0.25v3.811h-0.465v-4.529h3.172v4.529h-0.472V54.556z M86.188,54.033h1.818v4.141h-1.818V54.033z   M92.76,54.033h1.818v4.141H92.76V54.033z M95.079,53.837h0.466v4.529h-0.466V53.837z"></path><path fill="#000000" d="M80.329,53.343H66.796c-0.138,0-0.25,0.112-0.25,0.25v5.023c0,0.138,0.112,0.25,0.25,0.25h0.619h1.741h4.831  h1.741h4.6c0.139,0,0.25-0.112,0.25-0.25v-5.023C80.579,53.456,80.467,53.343,80.329,53.343z M74.238,54.806h1.241v3.561h-1.241  V54.806z M75.979,54.556c0-0.138-0.111-0.25-0.25-0.25h-1.741c-0.138,0-0.25,0.112-0.25,0.25v3.811h-1.042v-4.523h3.749v4.523  h-0.466V54.556z M67.666,54.806h1.241v3.561h-1.241V54.806z M69.407,54.556c0-0.138-0.111-0.25-0.25-0.25h-1.741  c-0.138,0-0.25,0.112-0.25,0.25v3.811h-0.119v-4.523h2.826v4.523h-0.466V54.556z M70.373,54.041h1.823v4.133h-1.823V54.041z   M76.945,54.041h1.822v4.133h-1.822V54.041z M79.267,53.843h0.812v4.523h-0.812V53.843z"></path><path fill="#000000" d="M94.829,58.947H92.51c-0.139,0-0.25,0.112-0.25,0.25v4.834c0,0.138,0.111,0.25,0.25,0.25h2.318  c0.139,0,0.25-0.112,0.25-0.25v-4.834C95.079,59.059,94.967,58.947,94.829,58.947z M94.579,59.447v4.334H92.76v-4.334H94.579z"></path><path fill="#000000" d="M64.866,42.125H51.333c-0.138,0-0.25,0.112-0.25,0.25v5.031c0,0.138,0.112,0.25,0.25,0.25h0.619h1.742h4.83  h1.741h4.6c0.138,0,0.25-0.112,0.25-0.25v-5.031C65.116,42.237,65.003,42.125,64.866,42.125z M58.775,43.595h1.241v3.561h-1.241  V43.595z M60.516,43.345c0-0.138-0.111-0.25-0.25-0.25h-1.741c-0.138,0-0.25,0.112-0.25,0.25v3.811h-1.046v-4.531h3.753v4.531  h-0.466V43.345z M52.203,43.595h1.242v3.561h-1.242V43.595z M53.945,43.345c0-0.138-0.112-0.25-0.25-0.25h-1.742  c-0.138,0-0.25,0.112-0.25,0.25v3.811h-0.119v-4.531h2.826v4.531h-0.465V43.345z M54.91,42.822h1.819v4.139H54.91V42.822z   M61.482,42.822h1.819v4.139h-1.819V42.822z M63.801,42.625h0.814v4.531h-0.814V42.625z"></path><path fill="#000000" d="M91.545,58.947h-2.323c-0.138,0-0.25,0.112-0.25,0.25v4.834c0,0.138,0.112,0.25,0.25,0.25h2.323  c0.138,0,0.25-0.112,0.25-0.25v-4.834C91.795,59.059,91.683,58.947,91.545,58.947z M91.295,59.447v4.334h-1.823v-4.334H91.295z"></path><path fill="#000000" d="M95.794,47.736H82.266c-0.139,0-0.25,0.112-0.25,0.25v5.023c0,0.138,0.111,0.25,0.25,0.25h0.965h1.735h4.837  h1.742h4.249c0.138,0,0.25-0.112,0.25-0.25v-5.023C96.044,47.848,95.932,47.736,95.794,47.736z M90.053,49.199h1.242v3.561h-1.242  V49.199z M91.795,48.949c0-0.138-0.112-0.25-0.25-0.25h-1.742c-0.139,0-0.25,0.112-0.25,0.25v3.811h-1.047v-4.523h3.754v4.523  h-0.465V48.949z M83.481,49.199h1.235v3.561h-1.235V49.199z M85.216,48.949c0-0.138-0.112-0.25-0.25-0.25h-1.735  c-0.138,0-0.25,0.112-0.25,0.25v3.811h-0.465v-4.523h3.172v4.523h-0.472V48.949z M86.188,48.423h1.818v4.139h-1.818V48.423z   M92.76,48.423h1.818v4.139H92.76V48.423z M95.079,48.236h0.466v4.523h-0.466V48.236z"></path><path fill="#000000" d="M54.272,59.142h-2.319c-0.138,0-0.25,0.112-0.25,0.25v4.775c0,0.138,0.112,0.25,0.25,0.25h2.319  c0.138,0,0.25-0.112,0.25-0.25v-4.775C54.522,59.254,54.41,59.142,54.272,59.142z M54.022,59.642v4.275h-1.819v-4.275H54.022z"></path><path fill="#000000" d="M69.739,59.142h-2.323c-0.138,0-0.25,0.112-0.25,0.25v4.578c0,0.138,0.112,0.25,0.25,0.25h2.323  c0.138,0,0.25-0.112,0.25-0.25v-4.578C69.989,59.254,69.876,59.142,69.739,59.142z M69.489,59.642v4.078h-1.823v-4.078H69.489z"></path><path fill="#000000" d="M76.31,59.142h-2.322c-0.138,0-0.25,0.112-0.25,0.25v4.578c0,0.138,0.112,0.25,0.25,0.25h2.322  c0.138,0,0.25-0.112,0.25-0.25v-4.578C76.56,59.254,76.448,59.142,76.31,59.142z M76.06,59.642v4.078h-1.822v-4.078H76.06z"></path><path fill="#000000" d="M60.844,59.142h-2.319c-0.138,0-0.25,0.112-0.25,0.25v4.775c0,0.138,0.112,0.25,0.25,0.25h2.319  c0.138,0,0.25-0.112,0.25-0.25v-4.775C61.094,59.254,60.982,59.142,60.844,59.142z M60.594,59.642v4.275h-1.819v-4.275H60.594z"></path><path fill="#000000" d="M57.559,59.142h-2.318c-0.139,0-0.25,0.112-0.25,0.25v4.639c0,0.138,0.111,0.25,0.25,0.25h2.318  c0.139,0,0.25-0.112,0.25-0.25v-4.639C57.809,59.254,57.698,59.142,57.559,59.142z M57.309,59.642v4.139h-1.818v-4.139H57.309z"></path><path fill="#000000" d="M64.131,59.142h-2.318c-0.139,0-0.25,0.112-0.25,0.25v4.639c0,0.138,0.111,0.25,0.25,0.25h2.318  c0.139,0,0.25-0.112,0.25-0.25v-4.639C64.381,59.254,64.27,59.142,64.131,59.142z M63.881,59.642v4.139h-1.818v-4.139H63.881z"></path><path fill="#000000" d="M79.597,59.142h-2.319c-0.138,0-0.25,0.112-0.25,0.25v4.578c0,0.138,0.112,0.25,0.25,0.25h2.319  c0.138,0,0.25-0.112,0.25-0.25v-4.578C79.847,59.254,79.735,59.142,79.597,59.142z M79.347,59.642v4.078h-1.819v-4.078H79.347z"></path><path fill="#000000" d="M73.022,59.142h-2.318c-0.139,0-0.25,0.112-0.25,0.25v4.578c0,0.138,0.111,0.25,0.25,0.25h2.318  c0.139,0,0.25-0.112,0.25-0.25v-4.578C73.272,59.254,73.161,59.142,73.022,59.142z M72.772,59.642v4.078h-1.818v-4.078H72.772z"></path><path fill="#000000" d="M64.866,47.736H51.333c-0.138,0-0.25,0.112-0.25,0.25v5.023c0,0.138,0.112,0.25,0.25,0.25h0.619h1.742h4.83  h1.741h4.6c0.138,0,0.25-0.112,0.25-0.25v-5.023C65.116,47.848,65.003,47.736,64.866,47.736z M58.775,49.199h1.241v3.561h-1.241  V49.199z M60.516,48.949c0-0.138-0.111-0.25-0.25-0.25h-1.741c-0.138,0-0.25,0.112-0.25,0.25v3.811h-1.046v-4.523h3.753v4.523  h-0.466V48.949z M52.203,49.199h1.242v3.561h-1.242V49.199z M53.945,48.949c0-0.138-0.112-0.25-0.25-0.25h-1.742  c-0.138,0-0.25,0.112-0.25,0.25v3.811h-0.119v-4.523h2.826v4.523h-0.465V48.949z M54.91,48.423h1.819v4.139H54.91V48.423z   M61.482,48.423h1.819v4.139h-1.819V48.423z M63.801,48.236h0.814v4.523h-0.814V48.236z"></path><path fill="#000000" d="M96.763,36.74h-0.969H82.266h-0.969c-0.139,0-0.25,0.112-0.25,0.25v5.354H66.081v-5.314  c0-0.138-0.111-0.25-0.25-0.25h-0.965H51.333h-0.966h-0.969H35.864h-0.965c-0.138,0-0.25,0.112-0.25,0.25v5.314H19.686V36.99  c0-0.138-0.112-0.25-0.25-0.25H18.47H4.938H3.972c-0.138,0-0.25,0.112-0.25,0.25v14.031H3.584c-0.138,0-0.25,0.112-0.25,0.25v1.738  c0,0.138,0.112,0.25,0.25,0.25h0.138v3.363H3.584c-0.138,0-0.25,0.112-0.25,0.25v1.744c0,0.138,0.112,0.25,0.25,0.25h0.138v6.324  c0,0.138,0.112,0.25,0.25,0.25h8.696h5.802h31.898h0.229h0.035h31.634h5.795h8.702c0.138,0,0.25-0.112,0.25-0.25V36.99  C97.013,36.852,96.901,36.74,96.763,36.74z M87.811,59.447v4.471h-2.399v-4.471H87.811z M88.311,64.746v-0.293  c0-0.056-0.027-0.101-0.059-0.143c0.031-0.042,0.059-0.087,0.059-0.143v-4.971c0-0.138-0.111-0.25-0.25-0.25h-2.899  c-0.138,0-0.25,0.112-0.25,0.25v4.971c0,0.014,0.013,0.022,0.015,0.035h-2.66c-0.139,0-0.25,0.112-0.25,0.25v0.293v0.195H50.618  V60.16V37.279h0.466v3.555c0,0.138,0.112,0.25,0.25,0.25h13.532c0.138,0,0.25-0.112,0.25-0.25v-3.555h0.465v5.314v3.842  c0,0.138,0.112,0.25,0.25,0.25h15.467c0.138,0,0.25-0.112,0.25-0.25v-3.842V37.24h0.469v3.594c0,0.138,0.111,0.25,0.25,0.25h13.528  c0.138,0,0.25-0.112,0.25-0.25V37.24h0.469v27.701h-8.202V64.746z M4.222,58.617v-1.744v-3.863v-1.738V37.24h0.466v3.594  c0,0.138,0.112,0.25,0.25,0.25H18.47c0.138,0,0.25-0.112,0.25-0.25V37.24h0.466v5.354v3.842c0,0.138,0.112,0.25,0.25,0.25h15.463  c0.138,0,0.25-0.112,0.25-0.25v-3.842v-5.314h0.465v3.555c0,0.138,0.112,0.25,0.25,0.25h13.535c0.138,0,0.25-0.112,0.25-0.25v-3.555  h0.469V59.91h-0.469v-0.713c0-0.138-0.112-0.25-0.25-0.25H35.864c-0.138,0-0.25,0.112-0.25,0.25v0.713h-1.431v-0.713  c0-0.138-0.112-0.25-0.25-0.25H20.401c-0.138,0-0.25,0.112-0.25,0.25v0.713H18.47c-0.138,0-0.25,0.112-0.25,0.25v4.102h-2.416  c0.003-0.016,0.017-0.025,0.017-0.041v-5.023c0-0.138-0.112-0.25-0.25-0.25h-2.903c-0.138,0-0.25,0.112-0.25,0.25v5.023  c0,0.057,0.028,0.104,0.06,0.146c-0.032,0.042-0.06,0.089-0.06,0.146V64.8v0.141H4.222V58.617z M18.22,40.583H5.188V37.24H18.22  V40.583z M34.648,46.185H19.686v-3.342h14.963V46.185z M49.149,40.583H36.114v-3.305h13.035V40.583z M36.114,59.447h3.176v0.463  h-3.176V59.447z M39.79,59.589h1.819v0.32H39.79V59.589z M42.109,59.447h3.756v0.463h-3.756V59.447z M46.365,59.589h1.819v0.32  h-1.819V59.589z M48.684,59.447h0.465v0.463h-0.465V59.447z M20.651,59.447h3.172v0.463h-3.172V59.447z M24.323,59.589h1.822v0.32  h-1.822V59.589z M26.646,59.447h3.75v0.463h-3.75V59.447z M30.895,59.589h1.823v0.32h-1.823V59.589z M33.218,59.447h0.465v0.463  h-0.465V59.447z M15.321,59.447v4.523h-2.403v-4.523H15.321z M18.72,64.8v-0.289V60.41h1.681h3.672h2.322h4.25h2.323h0.965h1.931  h3.676h2.319h4.256h2.319h0.965h0.719v4.531H18.72V64.8z M64.616,40.583H51.583v-3.305h13.032V40.583z M81.047,46.185H66.081v-3.342  h14.967V46.185z M95.544,40.583H82.516V37.24h13.028V40.583z"></path></svg>