<?xml version="1.0" encoding="UTF-8" standalone="no"?>
<svg
   xmlns:dc="http://purl.org/dc/elements/1.1/"
   xmlns:cc="http://creativecommons.org/ns#"
   xmlns:rdf="http://www.w3.org/1999/02/22-rdf-syntax-ns#"
   xmlns:svg="http://www.w3.org/2000/svg"
   xmlns="http://www.w3.org/2000/svg"
   xmlns:sodipodi="http://sodipodi.sourceforge.net/DTD/sodipodi-0.dtd"
   xmlns:inkscape="http://www.inkscape.org/namespaces/inkscape"
   version="1.1"
   x="0px"
   y="0px"
   viewBox="0 0 100 100"
   enable-background="new 0 0 100 100"
   xml:space="preserve"
   id="svg4233"
   inkscape:version="0.91 r13725"
   sodipodi:docname="apartments_bubble.svg"><metadata
     id="metadata4293"><rdf:RDF><cc:Work
         rdf:about=""><dc:format>image/svg+xml</dc:format><dc:type
           rdf:resource="http://purl.org/dc/dcmitype/StillImage" /></cc:Work></rdf:RDF></metadata><defs
     id="defs4291" /><sodipodi:namedview
     pagecolor="#ffffff"
     bordercolor="#666666"
     borderopacity="1"
     objecttolerance="10"
     gridtolerance="10"
     guidetolerance="10"
     inkscape:pageopacity="0"
     inkscape:pageshadow="2"
     inkscape:window-width="1330"
     inkscape:window-height="755"
     id="namedview4289"
     showgrid="false"
     inkscape:zoom="5.73"
     inkscape:cx="50"
     inkscape:cy="47.556719"
     inkscape:window-x="0"
     inkscape:window-y="0"
     inkscape:window-maximized="0"
     inkscape:current-layer="svg4233" /><circle
     style="fill:#ff8080;fill-opacity:1;fill-rule:evenodd;stroke:none;stroke-width:1.21568513px;stroke-linecap:butt;stroke-linejoin:miter;stroke-opacity:1"
     id="path4295"
     cx="50.21764"
     cy="50.1082"
     r="49.71764" /><g
     id="g4297"
     transform="matrix(0.92702994,0,0,0.92702994,4.2432822,2.6809202)"><path
       id="path4235"
       d="m 12.475,58.867 1.742,0 4.252,0 c 0.138,0 0.25,-0.112 0.25,-0.25 l 0,-5.023 c 0,-0.138 -0.112,-0.25 -0.25,-0.25 l -13.531,0 c -0.138,0 -0.25,0.112 -0.25,0.25 l 0,5.023 c 0,0.138 0.112,0.25 0.25,0.25 l 0.965,0 1.742,0 4.83,0 z m 4.776,-0.694 -1.819,0 0,-4.186 1.819,0 0,4.186 z m 0.5,-4.33 0.469,0 0,4.523 -0.469,0 0,-4.523 z m -2.819,4.524 -0.465,0 0,-3.811 c 0,-0.138 -0.112,-0.25 -0.25,-0.25 l -1.742,0 c -0.138,0 -0.25,0.112 -0.25,0.25 l 0,3.811 -1.046,0 0,-4.523 3.753,0 0,4.523 z m -2.207,-3.561 1.242,0 0,3.561 -1.242,0 0,-3.561 z m -2.046,3.367 -1.819,0 0,-4.186 1.818,0 0,4.186 z m -2.319,0.194 -0.465,0 0,-3.811 c 0,-0.138 -0.112,-0.25 -0.25,-0.25 l -1.742,0 c -0.138,0 -0.25,0.112 -0.25,0.25 l 0,3.811 -0.465,0 0,-4.523 3.172,0 0,4.523 z m -2.207,-3.561 1.242,0 0,3.561 -1.242,0 0,-3.561 z"
       inkscape:connector-curvature="0"
       style="fill:#000000" /><path
       id="path4237"
       d="m 35.864,53.259 0.972,0 1.735,0 4.837,0 1.735,0 4.256,0 c 0.138,0 0.25,-0.112 0.25,-0.25 l 0,-5.023 c 0,-0.138 -0.112,-0.25 -0.25,-0.25 l -13.535,0 c -0.138,0 -0.25,0.112 -0.25,0.25 l 0,5.023 c 0,0.138 0.112,0.25 0.25,0.25 z m 12.32,-0.697 -1.819,0 0,-4.184 1.819,0 0,4.184 z m 0.5,-4.326 0.465,0 0,4.523 -0.465,0 0,-4.523 z m -2.819,4.523 -0.472,0 0,-3.811 c 0,-0.138 -0.112,-0.25 -0.25,-0.25 l -1.735,0 c -0.138,0 -0.25,0.112 -0.25,0.25 l 0,3.811 -1.049,0 0,-4.523 3.756,0 0,4.523 z m -2.207,-3.56 1.235,0 0,3.561 -1.235,0 0,-3.561 z m -2.049,3.363 -1.819,0 0,-4.184 1.819,0 0,4.184 z m -2.319,0.197 -0.469,0 0,-3.811 c 0,-0.138 -0.112,-0.25 -0.25,-0.25 l -1.735,0 c -0.138,0 -0.25,0.112 -0.25,0.25 l 0,3.811 -0.472,0 0,-4.523 3.176,0 0,4.523 z m -2.204,-3.56 1.235,0 0,3.561 -1.235,0 0,-3.561 z"
       inkscape:connector-curvature="0"
       style="fill:#000000" /><path
       id="path4239"
       d="m 35.864,47.656 0.972,0 1.735,0 4.837,0 1.735,0 4.256,0 c 0.138,0 0.25,-0.112 0.25,-0.25 l 0,-5.188 c 0,-0.138 -0.112,-0.25 -0.25,-0.25 l -13.535,0 c -0.138,0 -0.25,0.112 -0.25,0.25 l 0,5.188 c 0,0.137 0.112,0.25 0.25,0.25 z m 12.32,-4.881 0,4.186 -1.819,0 0,-4.186 1.819,0 z m 0.5,-0.25 c 0,-0.022 -0.018,-0.036 -0.023,-0.057 l 0.489,0 0,4.688 -0.465,0 0,-4.631 z m -2.819,0 0,4.631 -0.472,0 0,-3.811 c 0,-0.138 -0.112,-0.25 -0.25,-0.25 l -1.735,0 c -0.138,0 -0.25,0.112 -0.25,0.25 l 0,3.811 -1.049,0 0,-4.631 c 0,-0.022 -0.018,-0.036 -0.023,-0.057 l 3.803,0 c -0.006,0.021 -0.024,0.034 -0.024,0.057 z m -2.207,1.07 1.235,0 0,3.561 -1.235,0 0,-3.561 z m -2.049,-0.82 0,4.186 -1.819,0 0,-4.186 1.819,0 z m -2.319,-0.25 0,4.631 -0.469,0 0,-3.811 c 0,-0.138 -0.112,-0.25 -0.25,-0.25 l -1.735,0 c -0.138,0 -0.25,0.112 -0.25,0.25 l 0,3.811 -0.472,0 0,-4.688 3.199,0 c -0.005,0.021 -0.023,0.034 -0.023,0.057 z m -2.204,1.07 1.235,0 0,3.561 -1.235,0 0,-3.561 z"
       inkscape:connector-curvature="0"
       style="fill:#000000" /><path
       id="path4241"
       d="m 20.401,53.259 0.965,0 1.742,0 4.83,0 1.742,0 4.253,0 c 0.138,0 0.25,-0.112 0.25,-0.25 l 0,-5.023 c 0,-0.138 -0.112,-0.25 -0.25,-0.25 l -13.532,0 c -0.138,0 -0.25,0.112 -0.25,0.25 l 0,5.023 c 0,0.138 0.112,0.25 0.25,0.25 z m 12.317,-0.697 -1.823,0 0,-4.184 1.823,0 0,4.184 z m 0.5,-4.326 0.465,0 0,4.523 -0.465,0 0,-4.523 z m -2.823,4.523 -0.465,0 0,-3.811 c 0,-0.138 -0.112,-0.25 -0.25,-0.25 l -1.742,0 c -0.138,0 -0.25,0.112 -0.25,0.25 l 0,3.811 -1.042,0 0,-4.523 3.75,0 0,4.523 z m -2.207,-3.56 1.242,0 0,3.561 -1.242,0 0,-3.561 z m -2.042,3.363 -1.822,0 0,-4.184 1.822,0 0,4.184 z m -2.323,0.197 -0.465,0 0,-3.811 c 0,-0.138 -0.112,-0.25 -0.25,-0.25 l -1.742,0 c -0.138,0 -0.25,0.112 -0.25,0.25 l 0,3.811 -0.465,0 0,-4.523 3.172,0 0,4.523 z m -2.207,-3.56 1.242,0 0,3.561 -1.242,0 0,-3.561 z"
       inkscape:connector-curvature="0"
       style="fill:#000000" /><path
       id="path4243"
       d="m 20.401,58.867 0.965,0 1.742,0 4.83,0 1.742,0 4.253,0 c 0.138,0 0.25,-0.112 0.25,-0.25 l 0,-5.023 c 0,-0.138 -0.112,-0.25 -0.25,-0.25 l -13.532,0 c -0.138,0 -0.25,0.112 -0.25,0.25 l 0,5.023 c 0,0.137 0.112,0.25 0.25,0.25 z m 12.317,-0.694 -1.823,0 0,-4.186 1.823,0 0,4.186 z m 0.5,-4.33 0.465,0 0,4.523 -0.465,0 0,-4.523 z m -2.823,4.524 -0.465,0 0,-3.811 c 0,-0.138 -0.112,-0.25 -0.25,-0.25 l -1.742,0 c -0.138,0 -0.25,0.112 -0.25,0.25 l 0,3.811 -1.042,0 0,-4.523 3.75,0 0,4.523 z m -2.207,-3.561 1.242,0 0,3.561 -1.242,0 0,-3.561 z m -2.042,3.367 -1.822,0 0,-4.186 1.822,0 0,4.186 z m -2.323,0.194 -0.465,0 0,-3.811 c 0,-0.138 -0.112,-0.25 -0.25,-0.25 l -1.742,0 c -0.138,0 -0.25,0.112 -0.25,0.25 l 0,3.811 -0.465,0 0,-4.523 3.172,0 0,4.523 z m -2.207,-3.561 1.242,0 0,3.561 -1.242,0 0,-3.561 z"
       inkscape:connector-curvature="0"
       style="fill:#000000" /><path
       id="path4245"
       d="m 4.938,47.656 0.965,0 1.742,0 4.83,0 1.742,0 4.252,0 c 0.138,0 0.25,-0.112 0.25,-0.25 l 0,-5.188 c 0,-0.138 -0.112,-0.25 -0.25,-0.25 l -13.531,0 c -0.138,0 -0.25,0.112 -0.25,0.25 l 0,5.188 c 0,0.137 0.112,0.25 0.25,0.25 z m 12.313,-4.881 0,4.186 -1.819,0 0,-4.186 1.819,0 z m 0.5,-0.25 c 0,-0.022 -0.018,-0.036 -0.023,-0.057 l 0.492,0 0,4.688 -0.469,0 0,-4.631 z m -2.819,0 0,4.631 -0.465,0 0,-3.811 c 0,-0.138 -0.112,-0.25 -0.25,-0.25 l -1.742,0 c -0.138,0 -0.25,0.112 -0.25,0.25 l 0,3.811 -1.046,0 0,-4.631 c 0,-0.022 -0.018,-0.036 -0.023,-0.057 l 3.8,0 c -0.006,0.021 -0.024,0.034 -0.024,0.057 z m -2.207,1.07 1.242,0 0,3.561 -1.242,0 0,-3.561 z m -2.046,-0.82 0,4.186 -1.819,0 0,-4.186 1.819,0 z m -2.319,-0.25 0,4.631 -0.465,0 0,-3.811 c 0,-0.138 -0.112,-0.25 -0.25,-0.25 l -1.742,0 c -0.138,0 -0.25,0.112 -0.25,0.25 l 0,3.811 -0.465,0 0,-4.688 3.196,0 C 8.378,42.489 8.36,42.502 8.36,42.525 Z m -2.207,1.07 1.242,0 0,3.561 -1.242,0 0,-3.561 z"
       inkscape:connector-curvature="0"
       style="fill:#000000" /><path
       id="path4247"
       d="m 4.938,53.259 0.965,0 1.742,0 4.83,0 1.742,0 4.252,0 c 0.138,0 0.25,-0.112 0.25,-0.25 l 0,-5.023 c 0,-0.138 -0.112,-0.25 -0.25,-0.25 l -13.531,0 c -0.138,0 -0.25,0.112 -0.25,0.25 l 0,5.023 c 0,0.138 0.112,0.25 0.25,0.25 z m 12.313,-0.697 -1.819,0 0,-4.184 1.819,0 0,4.184 z m 0.5,-4.326 0.469,0 0,4.523 -0.469,0 0,-4.523 z m -2.819,4.523 -0.465,0 0,-3.811 c 0,-0.138 -0.112,-0.25 -0.25,-0.25 l -1.742,0 c -0.138,0 -0.25,0.112 -0.25,0.25 l 0,3.811 -1.046,0 0,-4.523 3.753,0 0,4.523 z m -2.207,-3.56 1.242,0 0,3.561 -1.242,0 0,-3.561 z m -2.046,3.363 -1.819,0 0,-4.184 1.818,0 0,4.184 z m -2.319,0.197 -0.465,0 0,-3.811 c 0,-0.138 -0.112,-0.25 -0.25,-0.25 l -1.742,0 c -0.138,0 -0.25,0.112 -0.25,0.25 l 0,3.811 -0.465,0 0,-4.523 3.172,0 0,4.523 z m -2.207,-3.56 1.242,0 0,3.561 -1.242,0 0,-3.561 z"
       inkscape:connector-curvature="0"
       style="fill:#000000" /><path
       id="path4249"
       d="m 35.864,58.867 0.972,0 1.735,0 4.837,0 1.735,0 4.256,0 c 0.138,0 0.25,-0.112 0.25,-0.25 l 0,-5.023 c 0,-0.138 -0.112,-0.25 -0.25,-0.25 l -13.535,0 c -0.138,0 -0.25,0.112 -0.25,0.25 l 0,5.023 c 0,0.137 0.112,0.25 0.25,0.25 z m 12.32,-0.694 -1.819,0 0,-4.186 1.819,0 0,4.186 z m 0.5,-4.33 0.465,0 0,4.523 -0.465,0 0,-4.523 z m -2.819,4.524 -0.472,0 0,-3.811 c 0,-0.138 -0.112,-0.25 -0.25,-0.25 l -1.735,0 c -0.138,0 -0.25,0.112 -0.25,0.25 l 0,3.811 -1.049,0 0,-4.523 3.756,0 0,4.523 z m -2.207,-3.561 1.235,0 0,3.561 -1.235,0 0,-3.561 z m -2.049,3.367 -1.819,0 0,-4.186 1.819,0 0,4.186 z m -2.319,0.194 -0.469,0 0,-3.811 c 0,-0.138 -0.112,-0.25 -0.25,-0.25 l -1.735,0 c -0.138,0 -0.25,0.112 -0.25,0.25 l 0,3.811 -0.472,0 0,-4.523 3.176,0 0,4.523 z m -2.204,-3.561 1.235,0 0,3.561 -1.235,0 0,-3.561 z"
       inkscape:connector-curvature="0"
       style="fill:#000000" /><path
       id="path4251"
       d="m 80.329,47.736 -13.533,0 c -0.138,0 -0.25,0.112 -0.25,0.25 l 0,5.023 c 0,0.138 0.112,0.25 0.25,0.25 l 0.619,0 1.741,0 4.831,0 1.741,0 4.6,0 c 0.139,0 0.25,-0.112 0.25,-0.25 l 0,-5.023 c 10e-4,-0.138 -0.111,-0.25 -0.249,-0.25 z m -6.091,1.463 1.241,0 0,3.561 -1.241,0 0,-3.561 z m 1.741,-0.25 c 0,-0.138 -0.111,-0.25 -0.25,-0.25 l -1.741,0 c -0.138,0 -0.25,0.112 -0.25,0.25 l 0,3.811 -1.042,0 0,-4.523 3.749,0 0,4.523 -0.466,0 0,-3.811 z m -8.313,0.25 1.241,0 0,3.561 -1.241,0 0,-3.561 z m 1.741,-0.25 c 0,-0.138 -0.111,-0.25 -0.25,-0.25 l -1.741,0 c -0.138,0 -0.25,0.112 -0.25,0.25 l 0,3.811 -0.119,0 0,-4.523 2.826,0 0,4.523 -0.466,0 0,-3.811 z m 0.966,-0.526 1.823,0 0,4.139 -1.823,0 0,-4.139 z m 6.572,0 1.822,0 0,4.139 -1.822,0 0,-4.139 z m 2.322,-0.187 0.812,0 0,4.523 -0.812,0 0,-4.523 z"
       inkscape:connector-curvature="0"
       style="fill:#000000" /><path
       id="path4253"
       d="m 95.794,42.125 -13.528,0 c -0.139,0 -0.25,0.112 -0.25,0.25 l 0,5.031 c 0,0.138 0.111,0.25 0.25,0.25 l 0.965,0 1.735,0 4.837,0 1.742,0 4.249,0 c 0.138,0 0.25,-0.112 0.25,-0.25 l 0,-5.031 c 0,-0.138 -0.112,-0.25 -0.25,-0.25 z m -5.741,1.47 1.242,0 0,3.561 -1.242,0 0,-3.561 z m 1.742,-0.25 c 0,-0.138 -0.112,-0.25 -0.25,-0.25 l -1.742,0 c -0.139,0 -0.25,0.112 -0.25,0.25 l 0,3.811 -1.047,0 0,-4.531 3.754,0 0,4.531 -0.465,0 0,-3.811 z m -8.314,0.25 1.235,0 0,3.561 -1.235,0 0,-3.561 z m 1.735,-0.25 c 0,-0.138 -0.112,-0.25 -0.25,-0.25 l -1.735,0 c -0.138,0 -0.25,0.112 -0.25,0.25 l 0,3.811 -0.465,0 0,-4.531 3.172,0 0,4.531 -0.472,0 0,-3.811 z m 0.972,-0.523 1.818,0 0,4.139 -1.818,0 0,-4.139 z m 6.572,0 1.818,0 0,4.139 -1.818,0 0,-4.139 z m 2.319,-0.197 0.466,0 0,4.531 -0.466,0 0,-4.531 z"
       inkscape:connector-curvature="0"
       style="fill:#000000" /><path
       id="path4255"
       d="m 64.866,53.343 -13.533,0 c -0.138,0 -0.25,0.112 -0.25,0.25 l 0,5.023 c 0,0.138 0.112,0.25 0.25,0.25 l 0.619,0 1.742,0 4.83,0 1.741,0 4.6,0 c 0.138,0 0.25,-0.112 0.25,-0.25 l 0,-5.023 c 0.001,-0.137 -0.112,-0.25 -0.249,-0.25 z m -6.091,1.463 1.241,0 0,3.561 -1.241,0 0,-3.561 z m 1.741,-0.25 c 0,-0.138 -0.111,-0.25 -0.25,-0.25 l -1.741,0 c -0.138,0 -0.25,0.112 -0.25,0.25 l 0,3.811 -1.046,0 0,-4.523 3.753,0 0,4.523 -0.466,0 0,-3.811 z m -8.313,0.25 1.242,0 0,3.561 -1.242,0 0,-3.561 z m 1.742,-0.25 c 0,-0.138 -0.112,-0.25 -0.25,-0.25 l -1.742,0 c -0.138,0 -0.25,0.112 -0.25,0.25 l 0,3.811 -0.119,0 0,-4.523 2.826,0 0,4.523 -0.465,0 0,-3.811 z m 0.965,-0.515 1.819,0 0,4.133 -1.819,0 0,-4.133 z m 6.572,0 1.819,0 0,4.133 -1.819,0 0,-4.133 z m 2.319,-0.198 0.814,0 0,4.523 -0.814,0 0,-4.523 z"
       inkscape:connector-curvature="0"
       style="fill:#000000" /><path
       id="path4257"
       d="m 95.794,53.337 -13.528,0 c -0.139,0 -0.25,0.112 -0.25,0.25 l 0,5.029 c 0,0.138 0.111,0.25 0.25,0.25 l 0.965,0 1.735,0 4.837,0 1.742,0 4.249,0 c 0.138,0 0.25,-0.112 0.25,-0.25 l 0,-5.029 c 0,-0.137 -0.112,-0.25 -0.25,-0.25 z m -5.741,1.469 1.242,0 0,3.561 -1.242,0 0,-3.561 z m 1.742,-0.25 c 0,-0.138 -0.112,-0.25 -0.25,-0.25 l -1.742,0 c -0.139,0 -0.25,0.112 -0.25,0.25 l 0,3.811 -1.047,0 0,-4.529 3.754,0 0,4.529 -0.465,0 0,-3.811 z m -8.314,0.25 1.235,0 0,3.561 -1.235,0 0,-3.561 z m 1.735,-0.25 c 0,-0.138 -0.112,-0.25 -0.25,-0.25 l -1.735,0 c -0.138,0 -0.25,0.112 -0.25,0.25 l 0,3.811 -0.465,0 0,-4.529 3.172,0 0,4.529 -0.472,0 0,-3.811 z m 0.972,-0.523 1.818,0 0,4.141 -1.818,0 0,-4.141 z m 6.572,0 1.818,0 0,4.141 -1.818,0 0,-4.141 z m 2.319,-0.196 0.466,0 0,4.529 -0.466,0 0,-4.529 z"
       inkscape:connector-curvature="0"
       style="fill:#000000" /><path
       id="path4259"
       d="m 80.329,53.343 -13.533,0 c -0.138,0 -0.25,0.112 -0.25,0.25 l 0,5.023 c 0,0.138 0.112,0.25 0.25,0.25 l 0.619,0 1.741,0 4.831,0 1.741,0 4.6,0 c 0.139,0 0.25,-0.112 0.25,-0.25 l 0,-5.023 c 10e-4,-0.137 -0.111,-0.25 -0.249,-0.25 z m -6.091,1.463 1.241,0 0,3.561 -1.241,0 0,-3.561 z m 1.741,-0.25 c 0,-0.138 -0.111,-0.25 -0.25,-0.25 l -1.741,0 c -0.138,0 -0.25,0.112 -0.25,0.25 l 0,3.811 -1.042,0 0,-4.523 3.749,0 0,4.523 -0.466,0 0,-3.811 z m -8.313,0.25 1.241,0 0,3.561 -1.241,0 0,-3.561 z m 1.741,-0.25 c 0,-0.138 -0.111,-0.25 -0.25,-0.25 l -1.741,0 c -0.138,0 -0.25,0.112 -0.25,0.25 l 0,3.811 -0.119,0 0,-4.523 2.826,0 0,4.523 -0.466,0 0,-3.811 z m 0.966,-0.515 1.823,0 0,4.133 -1.823,0 0,-4.133 z m 6.572,0 1.822,0 0,4.133 -1.822,0 0,-4.133 z m 2.322,-0.198 0.812,0 0,4.523 -0.812,0 0,-4.523 z"
       inkscape:connector-curvature="0"
       style="fill:#000000" /><path
       id="path4261"
       d="m 94.829,58.947 -2.319,0 c -0.139,0 -0.25,0.112 -0.25,0.25 l 0,4.834 c 0,0.138 0.111,0.25 0.25,0.25 l 2.318,0 c 0.139,0 0.25,-0.112 0.25,-0.25 l 0,-4.834 c 10e-4,-0.138 -0.111,-0.25 -0.249,-0.25 z m -0.25,0.5 0,4.334 -1.819,0 0,-4.334 1.819,0 z"
       inkscape:connector-curvature="0"
       style="fill:#000000" /><path
       id="path4263"
       d="m 64.866,42.125 -13.533,0 c -0.138,0 -0.25,0.112 -0.25,0.25 l 0,5.031 c 0,0.138 0.112,0.25 0.25,0.25 l 0.619,0 1.742,0 4.83,0 1.741,0 4.6,0 c 0.138,0 0.25,-0.112 0.25,-0.25 l 0,-5.031 c 0.001,-0.138 -0.112,-0.25 -0.249,-0.25 z m -6.091,1.47 1.241,0 0,3.561 -1.241,0 0,-3.561 z m 1.741,-0.25 c 0,-0.138 -0.111,-0.25 -0.25,-0.25 l -1.741,0 c -0.138,0 -0.25,0.112 -0.25,0.25 l 0,3.811 -1.046,0 0,-4.531 3.753,0 0,4.531 -0.466,0 0,-3.811 z m -8.313,0.25 1.242,0 0,3.561 -1.242,0 0,-3.561 z m 1.742,-0.25 c 0,-0.138 -0.112,-0.25 -0.25,-0.25 l -1.742,0 c -0.138,0 -0.25,0.112 -0.25,0.25 l 0,3.811 -0.119,0 0,-4.531 2.826,0 0,4.531 -0.465,0 0,-3.811 z m 0.965,-0.523 1.819,0 0,4.139 -1.819,0 0,-4.139 z m 6.572,0 1.819,0 0,4.139 -1.819,0 0,-4.139 z m 2.319,-0.197 0.814,0 0,4.531 -0.814,0 0,-4.531 z"
       inkscape:connector-curvature="0"
       style="fill:#000000" /><path
       id="path4265"
       d="m 91.545,58.947 -2.323,0 c -0.138,0 -0.25,0.112 -0.25,0.25 l 0,4.834 c 0,0.138 0.112,0.25 0.25,0.25 l 2.323,0 c 0.138,0 0.25,-0.112 0.25,-0.25 l 0,-4.834 c 0,-0.138 -0.112,-0.25 -0.25,-0.25 z m -0.25,0.5 0,4.334 -1.823,0 0,-4.334 1.823,0 z"
       inkscape:connector-curvature="0"
       style="fill:#000000" /><path
       id="path4267"
       d="m 95.794,47.736 -13.528,0 c -0.139,0 -0.25,0.112 -0.25,0.25 l 0,5.023 c 0,0.138 0.111,0.25 0.25,0.25 l 0.965,0 1.735,0 4.837,0 1.742,0 4.249,0 c 0.138,0 0.25,-0.112 0.25,-0.25 l 0,-5.023 c 0,-0.138 -0.112,-0.25 -0.25,-0.25 z m -5.741,1.463 1.242,0 0,3.561 -1.242,0 0,-3.561 z m 1.742,-0.25 c 0,-0.138 -0.112,-0.25 -0.25,-0.25 l -1.742,0 c -0.139,0 -0.25,0.112 -0.25,0.25 l 0,3.811 -1.047,0 0,-4.523 3.754,0 0,4.523 -0.465,0 0,-3.811 z m -8.314,0.25 1.235,0 0,3.561 -1.235,0 0,-3.561 z m 1.735,-0.25 c 0,-0.138 -0.112,-0.25 -0.25,-0.25 l -1.735,0 c -0.138,0 -0.25,0.112 -0.25,0.25 l 0,3.811 -0.465,0 0,-4.523 3.172,0 0,4.523 -0.472,0 0,-3.811 z m 0.972,-0.526 1.818,0 0,4.139 -1.818,0 0,-4.139 z m 6.572,0 1.818,0 0,4.139 -1.818,0 0,-4.139 z m 2.319,-0.187 0.466,0 0,4.523 -0.466,0 0,-4.523 z"
       inkscape:connector-curvature="0"
       style="fill:#000000" /><path
       id="path4269"
       d="m 54.272,59.142 -2.319,0 c -0.138,0 -0.25,0.112 -0.25,0.25 l 0,4.775 c 0,0.138 0.112,0.25 0.25,0.25 l 2.319,0 c 0.138,0 0.25,-0.112 0.25,-0.25 l 0,-4.775 c 0,-0.138 -0.112,-0.25 -0.25,-0.25 z m -0.25,0.5 0,4.275 -1.819,0 0,-4.275 1.819,0 z"
       inkscape:connector-curvature="0"
       style="fill:#000000" /><path
       id="path4271"
       d="m 69.739,59.142 -2.323,0 c -0.138,0 -0.25,0.112 -0.25,0.25 l 0,4.578 c 0,0.138 0.112,0.25 0.25,0.25 l 2.323,0 c 0.138,0 0.25,-0.112 0.25,-0.25 l 0,-4.578 c 0,-0.138 -0.113,-0.25 -0.25,-0.25 z m -0.25,0.5 0,4.078 -1.823,0 0,-4.078 1.823,0 z"
       inkscape:connector-curvature="0"
       style="fill:#000000" /><path
       id="path4273"
       d="m 76.31,59.142 -2.322,0 c -0.138,0 -0.25,0.112 -0.25,0.25 l 0,4.578 c 0,0.138 0.112,0.25 0.25,0.25 l 2.322,0 c 0.138,0 0.25,-0.112 0.25,-0.25 l 0,-4.578 c 0,-0.138 -0.112,-0.25 -0.25,-0.25 z m -0.25,0.5 0,4.078 -1.822,0 0,-4.078 1.822,0 z"
       inkscape:connector-curvature="0"
       style="fill:#000000" /><path
       id="path4275"
       d="m 60.844,59.142 -2.319,0 c -0.138,0 -0.25,0.112 -0.25,0.25 l 0,4.775 c 0,0.138 0.112,0.25 0.25,0.25 l 2.319,0 c 0.138,0 0.25,-0.112 0.25,-0.25 l 0,-4.775 c 0,-0.138 -0.112,-0.25 -0.25,-0.25 z m -0.25,0.5 0,4.275 -1.819,0 0,-4.275 1.819,0 z"
       inkscape:connector-curvature="0"
       style="fill:#000000" /><path
       id="path4277"
       d="m 57.559,59.142 -2.318,0 c -0.139,0 -0.25,0.112 -0.25,0.25 l 0,4.639 c 0,0.138 0.111,0.25 0.25,0.25 l 2.318,0 c 0.139,0 0.25,-0.112 0.25,-0.25 l 0,-4.639 c 0,-0.138 -0.111,-0.25 -0.25,-0.25 z m -0.25,0.5 0,4.139 -1.818,0 0,-4.139 1.818,0 z"
       inkscape:connector-curvature="0"
       style="fill:#000000" /><path
       id="path4279"
       d="m 64.131,59.142 -2.318,0 c -0.139,0 -0.25,0.112 -0.25,0.25 l 0,4.639 c 0,0.138 0.111,0.25 0.25,0.25 l 2.318,0 c 0.139,0 0.25,-0.112 0.25,-0.25 l 0,-4.639 c 0,-0.138 -0.111,-0.25 -0.25,-0.25 z m -0.25,0.5 0,4.139 -1.818,0 0,-4.139 1.818,0 z"
       inkscape:connector-curvature="0"
       style="fill:#000000" /><path
       id="path4281"
       d="m 79.597,59.142 -2.319,0 c -0.138,0 -0.25,0.112 -0.25,0.25 l 0,4.578 c 0,0.138 0.112,0.25 0.25,0.25 l 2.319,0 c 0.138,0 0.25,-0.112 0.25,-0.25 l 0,-4.578 c 0,-0.138 -0.112,-0.25 -0.25,-0.25 z m -0.25,0.5 0,4.078 -1.819,0 0,-4.078 1.819,0 z"
       inkscape:connector-curvature="0"
       style="fill:#000000" /><path
       id="path4283"
       d="m 73.022,59.142 -2.318,0 c -0.139,0 -0.25,0.112 -0.25,0.25 l 0,4.578 c 0,0.138 0.111,0.25 0.25,0.25 l 2.318,0 c 0.139,0 0.25,-0.112 0.25,-0.25 l 0,-4.578 c 0,-0.138 -0.111,-0.25 -0.25,-0.25 z m -0.25,0.5 0,4.078 -1.818,0 0,-4.078 1.818,0 z"
       inkscape:connector-curvature="0"
       style="fill:#000000" /><path
       id="path4285"
       d="m 64.866,47.736 -13.533,0 c -0.138,0 -0.25,0.112 -0.25,0.25 l 0,5.023 c 0,0.138 0.112,0.25 0.25,0.25 l 0.619,0 1.742,0 4.83,0 1.741,0 4.6,0 c 0.138,0 0.25,-0.112 0.25,-0.25 l 0,-5.023 c 0.001,-0.138 -0.112,-0.25 -0.249,-0.25 z m -6.091,1.463 1.241,0 0,3.561 -1.241,0 0,-3.561 z m 1.741,-0.25 c 0,-0.138 -0.111,-0.25 -0.25,-0.25 l -1.741,0 c -0.138,0 -0.25,0.112 -0.25,0.25 l 0,3.811 -1.046,0 0,-4.523 3.753,0 0,4.523 -0.466,0 0,-3.811 z m -8.313,0.25 1.242,0 0,3.561 -1.242,0 0,-3.561 z m 1.742,-0.25 c 0,-0.138 -0.112,-0.25 -0.25,-0.25 l -1.742,0 c -0.138,0 -0.25,0.112 -0.25,0.25 l 0,3.811 -0.119,0 0,-4.523 2.826,0 0,4.523 -0.465,0 0,-3.811 z m 0.965,-0.526 1.819,0 0,4.139 -1.819,0 0,-4.139 z m 6.572,0 1.819,0 0,4.139 -1.819,0 0,-4.139 z m 2.319,-0.187 0.814,0 0,4.523 -0.814,0 0,-4.523 z"
       inkscape:connector-curvature="0"
       style="fill:#000000" /><path
       id="path4287"
       d="m 96.763,36.74 -0.969,0 -13.528,0 -0.969,0 c -0.139,0 -0.25,0.112 -0.25,0.25 l 0,5.354 -14.966,0 0,-5.314 c 0,-0.138 -0.111,-0.25 -0.25,-0.25 l -0.965,0 -13.533,0 -0.966,0 -0.969,0 -13.534,0 -0.965,0 c -0.138,0 -0.25,0.112 -0.25,0.25 l 0,5.314 -14.963,0 0,-5.354 c 0,-0.138 -0.112,-0.25 -0.25,-0.25 l -0.966,0 -13.532,0 -0.966,0 c -0.138,0 -0.25,0.112 -0.25,0.25 l 0,14.031 -0.138,0 c -0.138,0 -0.25,0.112 -0.25,0.25 l 0,1.738 c 0,0.138 0.112,0.25 0.25,0.25 l 0.138,0 0,3.363 -0.138,0 c -0.138,0 -0.25,0.112 -0.25,0.25 l 0,1.744 c 0,0.138 0.112,0.25 0.25,0.25 l 0.138,0 0,6.324 c 0,0.138 0.112,0.25 0.25,0.25 l 8.696,0 5.802,0 31.898,0 0.229,0 0.035,0 31.634,0 5.795,0 8.702,0 c 0.138,0 0.25,-0.112 0.25,-0.25 l 0,-28.2 c 0,-0.138 -0.112,-0.25 -0.25,-0.25 z m -8.952,22.707 0,4.471 -2.399,0 0,-4.471 2.399,0 z m 0.5,5.299 0,-0.293 c 0,-0.056 -0.027,-0.101 -0.059,-0.143 0.031,-0.042 0.059,-0.087 0.059,-0.143 l 0,-4.971 c 0,-0.138 -0.111,-0.25 -0.25,-0.25 l -2.899,0 c -0.138,0 -0.25,0.112 -0.25,0.25 l 0,4.971 c 0,0.014 0.013,0.022 0.015,0.035 l -2.66,0 c -0.139,0 -0.25,0.112 -0.25,0.25 l 0,0.293 0,0.195 -31.399,0 0,-4.78 0,-22.881 0.466,0 0,3.555 c 0,0.138 0.112,0.25 0.25,0.25 l 13.532,0 c 0.138,0 0.25,-0.112 0.25,-0.25 l 0,-3.555 0.465,0 0,5.314 0,3.842 c 0,0.138 0.112,0.25 0.25,0.25 l 15.467,0 c 0.138,0 0.25,-0.112 0.25,-0.25 l 0,-3.842 0,-5.353 0.469,0 0,3.594 c 0,0.138 0.111,0.25 0.25,0.25 l 13.528,0 c 0.138,0 0.25,-0.112 0.25,-0.25 l 0,-3.594 0.469,0 0,27.701 -8.202,0 0,-0.195 z m -84.089,-6.129 0,-1.744 0,-3.863 0,-1.738 0,-14.032 0.466,0 0,3.594 c 0,0.138 0.112,0.25 0.25,0.25 l 13.532,0 c 0.138,0 0.25,-0.112 0.25,-0.25 l 0,-3.594 0.466,0 0,5.354 0,3.842 c 0,0.138 0.112,0.25 0.25,0.25 l 15.463,0 c 0.138,0 0.25,-0.112 0.25,-0.25 l 0,-3.842 0,-5.314 0.465,0 0,3.555 c 0,0.138 0.112,0.25 0.25,0.25 l 13.535,0 c 0.138,0 0.25,-0.112 0.25,-0.25 l 0,-3.555 0.469,0 0,22.63 -0.469,0 0,-0.713 c 0,-0.138 -0.112,-0.25 -0.25,-0.25 l -13.535,0 c -0.138,0 -0.25,0.112 -0.25,0.25 l 0,0.713 -1.431,0 0,-0.713 c 0,-0.138 -0.112,-0.25 -0.25,-0.25 l -13.532,0 c -0.138,0 -0.25,0.112 -0.25,0.25 l 0,0.713 -1.681,0 c -0.138,0 -0.25,0.112 -0.25,0.25 l 0,4.102 -2.416,0 c 0.003,-0.016 0.017,-0.025 0.017,-0.041 l 0,-5.023 c 0,-0.138 -0.112,-0.25 -0.25,-0.25 l -2.903,0 c -0.138,0 -0.25,0.112 -0.25,0.25 l 0,5.023 c 0,0.057 0.028,0.104 0.06,0.146 -0.032,0.042 -0.06,0.089 -0.06,0.146 l 0,0.287 0,0.141 -8.196,0 0,-6.324 z m 13.998,-18.034 -13.032,0 0,-3.343 13.032,0 0,3.343 z m 16.428,5.602 -14.962,0 0,-3.342 14.963,0 0,3.342 z m 14.501,-5.602 -13.035,0 0,-3.305 13.035,0 0,3.305 z m -13.035,18.864 3.176,0 0,0.463 -3.176,0 0,-0.463 z m 3.676,0.142 1.819,0 0,0.32 -1.819,0 0,-0.32 z m 2.319,-0.142 3.756,0 0,0.463 -3.756,0 0,-0.463 z m 4.256,0.142 1.819,0 0,0.32 -1.819,0 0,-0.32 z m 2.319,-0.142 0.465,0 0,0.463 -0.465,0 0,-0.463 z m -28.033,0 3.172,0 0,0.463 -3.172,0 0,-0.463 z m 3.672,0.142 1.822,0 0,0.32 -1.822,0 0,-0.32 z m 2.323,-0.142 3.75,0 0,0.463 -3.75,0 0,-0.463 z m 4.249,0.142 1.823,0 0,0.32 -1.823,0 0,-0.32 z m 2.323,-0.142 0.465,0 0,0.463 -0.465,0 0,-0.463 z m -17.897,0 0,4.523 -2.403,0 0,-4.523 2.403,0 z m 3.399,5.353 0,-0.289 0,-4.101 1.681,0 3.672,0 2.322,0 4.25,0 2.323,0 0.965,0 1.931,0 3.676,0 2.319,0 4.256,0 2.319,0 0.965,0 0.719,0 0,4.531 -31.398,0 0,-0.141 z m 45.896,-24.217 -13.033,0 0,-3.305 13.032,0 0,3.305 z m 16.431,5.602 -14.966,0 0,-3.342 14.967,0 0,3.342 z m 14.497,-5.602 -13.028,0 0,-3.343 13.028,0 0,3.343 z"
       inkscape:connector-curvature="0"
       style="fill:#000000" /></g></svg>