<?xml version="1.0" encoding="UTF-8" standalone="no"?>
<svg
   xmlns:dc="http://purl.org/dc/elements/1.1/"
   xmlns:cc="http://creativecommons.org/ns#"
   xmlns:rdf="http://www.w3.org/1999/02/22-rdf-syntax-ns#"
   xmlns:svg="http://www.w3.org/2000/svg"
   xmlns="http://www.w3.org/2000/svg"
   xmlns:sodipodi="http://sodipodi.sourceforge.net/DTD/sodipodi-0.dtd"
   xmlns:inkscape="http://www.inkscape.org/namespaces/inkscape"
   version="1.1"
   x="0px"
   y="0px"
   viewBox="0 0 74.031 42.868"
   enable-background="new 0 0 74.031 42.868"
   xml:space="preserve"
   id="svg4402"
   inkscape:version="0.91 r13725"
   sodipodi:docname="checks2.svg"><metadata
     id="metadata4432"><rdf:RDF><cc:Work
         rdf:about=""><dc:format>image/svg+xml</dc:format><dc:type
           rdf:resource="http://purl.org/dc/dcmitype/StillImage" /><dc:title></dc:title></cc:Work></rdf:RDF></metadata><defs
     id="defs4430" /><sodipodi:namedview
     pagecolor="#ffffff"
     bordercolor="#666666"
     borderopacity="1"
     objecttolerance="10"
     gridtolerance="10"
     guidetolerance="10"
     inkscape:pageopacity="0"
     inkscape:pageshadow="2"
     inkscape:window-width="1138"
     inkscape:window-height="740"
     id="namedview4428"
     showgrid="false"
     inkscape:zoom="4.1874351"
     inkscape:cx="37.015499"
     inkscape:cy="21.434"
     inkscape:window-x="42"
     inkscape:window-y="28"
     inkscape:window-maximized="0"
     inkscape:current-layer="svg4402" /><line
     fill="none"
     stroke="#000000"
     stroke-width="2.4137"
     x1="10.943"
     y1="16.654"
     x2="44.288"
     y2="16.654"
     id="line4404" /><line
     fill="none"
     stroke="#000000"
     stroke-width="2.4137"
     x1="10.943"
     y1="21.477"
     x2="25.288"
     y2="21.477"
     id="line4406" /><line
     fill="none"
     stroke="#000000"
     stroke-width="2.4137"
     x1="10.943"
     y1="6.997"
     x2="44.288"
     y2="6.997"
     id="line4408" /><line
     fill="none"
     stroke="#000000"
     stroke-width="2.4137"
     x1="10.943"
     y1="11.826"
     x2="44.288"
     y2="11.826"
     id="line4410" /><line
     fill="none"
     stroke="#000000"
     stroke-width="0.75"
     x1="49.944"
     y1="33.311"
     x2="66.991"
     y2="33.311"
     id="line4412" /><line
     fill="none"
     stroke="#000000"
     stroke-width="0.75"
     x1="10.944"
     y1="33.311"
     x2="43.991"
     y2="33.311"
     id="line4414" /><rect
     x="4.125"
     y="1"
     fill="none"
     stroke="#000000"
     stroke-width="2"
     width="68.906"
     height="37.743"
     id="rect4416" /><g
     id="g4418"
     style="fill:#00aa00;fill-opacity:1"><path
       d="M62.411,19.795v-1.848c-1.579-0.017-2.856-1.293-2.856-2.89v-0.47l1.059-0.168v0.638c0,1.025,0.79,1.848,1.798,1.882   v-4.771c-1.429-0.521-2.856-1.142-2.856-3.208V8.741c0-1.579,1.277-2.873,2.856-2.889V4.339h0.84v1.512   c1.562,0.033,2.839,1.31,2.839,2.889v0.303l-1.059,0.168V8.741c0-1.008-0.789-1.831-1.78-1.881v4.553   c1.428,0.554,2.923,1.209,2.923,3.293v0.353c0,1.596-1.293,2.89-2.89,2.89H63.25v1.848H62.411z M62.411,11.076V6.859   c-1.008,0.05-1.798,0.874-1.798,1.881v0.219C60.613,10.119,61.403,10.639,62.411,11.076z M63.25,12.487v4.452   c1.024,0,1.864-0.84,1.864-1.882v-0.353C65.115,13.445,64.275,12.907,63.25,12.487z"
       id="path4420"
       style="fill:#00aa00;fill-opacity:1" /></g><polyline
     fill="none"
     stroke="#000000"
     stroke-width="0.25"
     points="71.031,40.743 2.125,40.743 2.125,3 "
     id="polyline4422" /><polyline
     fill="none"
     stroke="#000000"
     stroke-width="0.25"
     points="70.031,41.743 1.125,41.743 1.125,4 "
     id="polyline4424" /><polyline
     fill="none"
     stroke="#000000"
     stroke-width="0.25"
     points="69.031,42.743 0.125,42.743 0.125,5 "
     id="polyline4426" /></svg>