<?xml version="1.0" encoding="UTF-8" standalone="no"?>
<svg
   xmlns:dc="http://purl.org/dc/elements/1.1/"
   xmlns:cc="http://creativecommons.org/ns#"
   xmlns:rdf="http://www.w3.org/1999/02/22-rdf-syntax-ns#"
   xmlns:svg="http://www.w3.org/2000/svg"
   xmlns="http://www.w3.org/2000/svg"
   xmlns:sodipodi="http://sodipodi.sourceforge.net/DTD/sodipodi-0.dtd"
   xmlns:inkscape="http://www.inkscape.org/namespaces/inkscape"
   version="1.1"
   x="0px"
   y="0px"
   viewBox="0 0 100 100"
   enable-background="new 0 0 74.031 42.868"
   xml:space="preserve"
   id="svg2"
   inkscape:version="0.91 r13725"
   sodipodi:docname="checks_bubble.svg"
   width="100"
   height="100"><metadata
     id="metadata32"><rdf:RDF><cc:Work
         rdf:about=""><dc:format>image/svg+xml</dc:format><dc:type
           rdf:resource="http://purl.org/dc/dcmitype/StillImage" /><dc:title></dc:title></cc:Work></rdf:RDF></metadata><defs
     id="defs30" /><sodipodi:namedview
     pagecolor="#ffffff"
     bordercolor="#666666"
     borderopacity="1"
     objecttolerance="10"
     gridtolerance="10"
     guidetolerance="10"
     inkscape:pageopacity="0"
     inkscape:pageshadow="2"
     inkscape:window-width="1379"
     inkscape:window-height="766"
     id="namedview28"
     showgrid="false"
     inkscape:zoom="4.1874351"
     inkscape:cx="37.015499"
     inkscape:cy="40.538774"
     inkscape:window-x="0"
     inkscape:window-y="0"
     inkscape:window-maximized="0"
     inkscape:current-layer="svg2" /><circle
     style="fill:#80ff80;fill-opacity:1;fill-rule:evenodd;stroke:none;stroke-width:1px;stroke-linecap:butt;stroke-linejoin:miter;stroke-opacity:1"
     id="path4174"
     cx="49.955982"
     cy="50.029015"
     r="48.955982" /><g
     id="g4160"
     transform="translate(14,-28)"><line
       style="fill:none;stroke:#000000;stroke-width:2.4137001"
       id="line4"
       y2="73.785995"
       x2="44.287998"
       y1="73.785995"
       x1="10.943" /><line
       style="fill:none;stroke:#000000;stroke-width:2.4137001"
       id="line6"
       y2="78.609001"
       x2="25.288"
       y1="78.609001"
       x1="10.943" /><line
       style="fill:none;stroke:#000000;stroke-width:2.4137001"
       id="line8"
       y2="64.128998"
       x2="44.287998"
       y1="64.128998"
       x1="10.943" /><line
       style="fill:none;stroke:#000000;stroke-width:2.4137001"
       id="line10"
       y2="68.958"
       x2="44.287998"
       y1="68.958"
       x1="10.943" /><line
       style="fill:none;stroke:#000000;stroke-width:0.75"
       id="line12"
       y2="90.443001"
       x2="66.990997"
       y1="90.443001"
       x1="49.944" /><line
       style="fill:none;stroke:#000000;stroke-width:0.75"
       id="line14"
       y2="90.443001"
       x2="43.991001"
       y1="90.443001"
       x1="10.944" /><rect
       style="fill:none;stroke:#000000;stroke-width:2"
       id="rect16"
       height="37.743"
       width="68.905998"
       y="58.132"
       x="4.125" /><g
       transform="translate(0,57.132)"
       id="g18"><path
         inkscape:connector-curvature="0"
         id="path20"
         d="m 62.411,19.795 0,-1.848 c -1.579,-0.017 -2.856,-1.293 -2.856,-2.89 l 0,-0.47 1.059,-0.168 0,0.638 c 0,1.025 0.79,1.848 1.798,1.882 l 0,-4.771 C 60.983,11.647 59.556,11.026 59.556,8.96 l 0,-0.219 c 0,-1.579 1.277,-2.873 2.856,-2.889 l 0,-1.513 0.84,0 0,1.512 c 1.562,0.033 2.839,1.31 2.839,2.889 l 0,0.303 -1.059,0.168 0,-0.47 c 0,-1.008 -0.789,-1.831 -1.78,-1.881 l 0,4.553 c 1.428,0.554 2.923,1.209 2.923,3.293 l 0,0.353 c 0,1.596 -1.293,2.89 -2.89,2.89 l -0.035,0 0,1.848 -0.839,0 z m 0,-8.719 0,-4.217 c -1.008,0.05 -1.798,0.874 -1.798,1.881 l 0,0.219 c 0,1.16 0.79,1.68 1.798,2.117 z m 0.839,1.411 0,4.452 c 1.024,0 1.864,-0.84 1.864,-1.882 l 0,-0.353 c 10e-4,-1.259 -0.839,-1.797 -1.864,-2.217 z" /></g><polyline
       transform="translate(0,57.132)"
       style="fill:none;stroke:#000000;stroke-width:0.25"
       id="polyline22"
       points="71.031,40.743 2.125,40.743 2.125,3 " /><polyline
       transform="translate(0,57.132)"
       style="fill:none;stroke:#000000;stroke-width:0.25"
       id="polyline24"
       points="70.031,41.743 1.125,41.743 1.125,4 " /><polyline
       transform="translate(0,57.132)"
       style="fill:none;stroke:#000000;stroke-width:0.25"
       id="polyline26"
       points="69.031,42.743 0.125,42.743 0.125,5 " /></g></svg>