<svg xmlns="http://www.w3.org/2000/svg" xmlns:xlink="http://www.w3.org/1999/xlink" version="1.1" x="0px" y="0px" viewBox="0 0 74.031 42.868" enable-background="new 0 0 74.031 42.868" xml:space="preserve"><line fill="none" stroke="#000000" stroke-width="2.4137" x1="10.943" y1="16.654" x2="44.288" y2="16.654"></line><line fill="none" stroke="#000000" stroke-width="2.4137" x1="10.943" y1="21.477" x2="25.288" y2="21.477"></line><line fill="none" stroke="#000000" stroke-width="2.4137" x1="10.943" y1="6.997" x2="44.288" y2="6.997"></line><line fill="none" stroke="#000000" stroke-width="2.4137" x1="10.943" y1="11.826" x2="44.288" y2="11.826"></line><line fill="none" stroke="#000000" stroke-width="0.75" x1="49.944" y1="33.311" x2="66.991" y2="33.311"></line><line fill="none" stroke="#000000" stroke-width="0.75" x1="10.944" y1="33.311" x2="43.991" y2="33.311"></line><rect x="4.125" y="1" fill="none" stroke="#000000" stroke-width="2" width="68.906" height="37.743"></rect><g><path d="M62.411,19.795v-1.848c-1.579-0.017-2.856-1.293-2.856-2.89v-0.47l1.059-0.168v0.638c0,1.025,0.79,1.848,1.798,1.882   v-4.771c-1.429-0.521-2.856-1.142-2.856-3.208V8.741c0-1.579,1.277-2.873,2.856-2.889V4.339h0.84v1.512   c1.562,0.033,2.839,1.31,2.839,2.889v0.303l-1.059,0.168V8.741c0-1.008-0.789-1.831-1.78-1.881v4.553   c1.428,0.554,2.923,1.209,2.923,3.293v0.353c0,1.596-1.293,2.89-2.89,2.89H63.25v1.848H62.411z M62.411,11.076V6.859   c-1.008,0.05-1.798,0.874-1.798,1.881v0.219C60.613,10.119,61.403,10.639,62.411,11.076z M63.25,12.487v4.452   c1.024,0,1.864-0.84,1.864-1.882v-0.353C65.115,13.445,64.275,12.907,63.25,12.487z"></path></g><polyline fill="none" stroke="#000000" stroke-width="0.25" points="71.031,40.743 2.125,40.743 2.125,3 "></polyline><polyline fill="none" stroke="#000000" stroke-width="0.25" points="70.031,41.743 1.125,41.743 1.125,4 "></polyline><polyline fill="none" stroke="#000000" stroke-width="0.25" points="69.031,42.743 0.125,42.743 0.125,5 "></polyline></svg>