<?xml version="1.0" encoding="UTF-8" standalone="no"?>
<svg
   xmlns:dc="http://purl.org/dc/elements/1.1/"
   xmlns:cc="http://creativecommons.org/ns#"
   xmlns:rdf="http://www.w3.org/1999/02/22-rdf-syntax-ns#"
   xmlns:svg="http://www.w3.org/2000/svg"
   xmlns="http://www.w3.org/2000/svg"
   xmlns:sodipodi="http://sodipodi.sourceforge.net/DTD/sodipodi-0.dtd"
   xmlns:inkscape="http://www.inkscape.org/namespaces/inkscape"
   data-name="Layer 1"
   viewBox="0 0 100 100"
   x="0px"
   y="0px"
   id="svg4226"
   version="1.1"
   inkscape:version="0.91 r13725"
   sodipodi:docname="crowd2.svg">
  <metadata
     id="metadata4252">
    <rdf:RDF>
      <cc:Work
         rdf:about="">
        <dc:format>image/svg+xml</dc:format>
        <dc:type
           rdf:resource="http://purl.org/dc/dcmitype/StillImage" />
        <dc:title>crowd_filled</dc:title>
      </cc:Work>
    </rdf:RDF>
  </metadata>
  <defs
     id="defs4250" />
  <sodipodi:namedview
     pagecolor="#ffffff"
     bordercolor="#666666"
     borderopacity="1"
     objecttolerance="10"
     gridtolerance="10"
     guidetolerance="10"
     inkscape:pageopacity="0"
     inkscape:pageshadow="2"
     inkscape:window-width="1377"
     inkscape:window-height="764"
     id="namedview4248"
     showgrid="false"
     inkscape:zoom="5.73"
     inkscape:cx="29.144852"
     inkscape:cy="50.697858"
     inkscape:window-x="0"
     inkscape:window-y="0"
     inkscape:window-maximized="0"
     inkscape:current-layer="svg4226" />
  <title
     id="title4228">crowd_filled</title>
  <path
     d="M89.91,64.79H77.34a9.09,9.09,0,0,0-9.09,9.09V75H99V73.88A9.09,9.09,0,0,0,89.91,64.79Z"
     id="path4230"
     style="fill:#000000;fill-opacity:1" />
  <circle
     cx="83.58"
     cy="56.27"
     r="7.14"
     id="circle4232"
     style="fill:#000000;fill-opacity:1" />
  <path
     d="M56.28,64.79H43.72a9.09,9.09,0,0,0-9.09,9.09V75H65.37V73.88A9.09,9.09,0,0,0,56.28,64.79Z"
     id="path4234"
     style="fill:#0000aa;fill-opacity:1" />
  <circle
     cx="49.96"
     cy="56.27"
     r="7.14"
     id="circle4236"
     style="fill:#0000aa;fill-opacity:1" />
  <circle
     cx="33.19"
     cy="44.24"
     r="6.5"
     id="circle4238"
     style="fill:#000000;fill-opacity:1" />
  <circle
     cx="66.81"
     cy="44.24"
     r="6.5"
     id="circle4240"
     style="fill:#000000;fill-opacity:1" />
  <circle
     cx="50"
     cy="30.95"
     r="6"
     id="circle4242"
     style="fill:#000000;fill-opacity:1" />
  <path
     d="M22.66,64.79H10.09A9.09,9.09,0,0,0,1,73.88V75H31.75V73.88A9.09,9.09,0,0,0,22.66,64.79Z"
     id="path4244"
     style="fill:#000000;fill-opacity:1" />
  <circle
     cx="16.33"
     cy="56.27"
     r="7.14"
     id="circle4246"
     style="fill:#000000;fill-opacity:1" />
</svg>
