<svg xmlns="http://www.w3.org/2000/svg" data-name="Layer 1" viewBox="0 0 100 100" x="0px" y="0px"><title>crowd_filled</title><path d="M89.91,64.79H77.34a9.09,9.09,0,0,0-9.09,9.09V75H99V73.88A9.09,9.09,0,0,0,89.91,64.79Z"></path><circle cx="83.58" cy="56.27" r="7.14"></circle><path d="M56.28,64.79H43.72a9.09,9.09,0,0,0-9.09,9.09V75H65.37V73.88A9.09,9.09,0,0,0,56.28,64.79Z"></path><circle cx="49.96" cy="56.27" r="7.14"></circle><circle cx="33.19" cy="44.24" r="6.5"></circle><circle cx="66.81" cy="44.24" r="6.5"></circle><circle cx="50" cy="30.95" r="6"></circle><path d="M22.66,64.79H10.09A9.09,9.09,0,0,0,1,73.88V75H31.75V73.88A9.09,9.09,0,0,0,22.66,64.79Z"></path><circle cx="16.33" cy="56.27" r="7.14"></circle></svg>