<?xml version="1.0" encoding="UTF-8" standalone="no"?>
<svg
   xmlns:dc="http://purl.org/dc/elements/1.1/"
   xmlns:cc="http://creativecommons.org/ns#"
   xmlns:rdf="http://www.w3.org/1999/02/22-rdf-syntax-ns#"
   xmlns:svg="http://www.w3.org/2000/svg"
   xmlns="http://www.w3.org/2000/svg"
   xmlns:sodipodi="http://sodipodi.sourceforge.net/DTD/sodipodi-0.dtd"
   xmlns:inkscape="http://www.inkscape.org/namespaces/inkscape"
   data-name="Layer 1"
   viewBox="0 0 100 100"
   x="0px"
   y="0px"
   id="svg2"
   version="1.1"
   inkscape:version="0.91 r13725"
   sodipodi:docname="crowd_bubble.svg">
  <metadata
     id="metadata28">
    <rdf:RDF>
      <cc:Work
         rdf:about="">
        <dc:format>image/svg+xml</dc:format>
        <dc:type
           rdf:resource="http://purl.org/dc/dcmitype/StillImage" />
        <dc:title>crowd_filled</dc:title>
      </cc:Work>
    </rdf:RDF>
  </metadata>
  <defs
     id="defs26" />
  <sodipodi:namedview
     pagecolor="#ffffff"
     bordercolor="#666666"
     borderopacity="1"
     objecttolerance="10"
     gridtolerance="10"
     guidetolerance="10"
     inkscape:pageopacity="0"
     inkscape:pageshadow="2"
     inkscape:window-width="1370"
     inkscape:window-height="763"
     id="namedview24"
     showgrid="false"
     inkscape:zoom="6.675088"
     inkscape:cx="27.291823"
     inkscape:cy="48.332172"
     inkscape:window-x="0"
     inkscape:window-y="0"
     inkscape:window-maximized="0"
     inkscape:current-layer="svg2" />
  <title
     id="title4">crowd_filled</title>
  <circle
     style="fill:#8080ff;fill-rule:evenodd;stroke:none;stroke-width:1px;stroke-linecap:butt;stroke-linejoin:miter;stroke-opacity:1;fill-opacity:1"
     id="path4167"
     cx="49.788136"
     cy="50.211864"
     r="49.788136" />
  <path
     inkscape:connector-curvature="0"
     d="m 80.10887,59.29673 -9.483849,0"
     id="path6" />
  <circle
     cx="75.332993"
     cy="52.868538"
     r="5.3870072"
     id="circle8" />
  <path
     inkscape:connector-curvature="0"
     d="m 54.735613,59.29673 -9.476304,0"
     id="path10" />
  <circle
     cx="49.967281"
     cy="52.868538"
     r="5.3870072"
     id="circle12" />
  <circle
     cx="37.314606"
     cy="43.79211"
     r="4.9041381"
     id="circle14" />
  <circle
     cx="62.680317"
     cy="43.79211"
     r="4.9041381"
     id="circle16" />
  <circle
     cx="49.997459"
     cy="33.765034"
     r="4.526897"
     id="circle18" />
  <path
     inkscape:connector-curvature="0"
     d="m 29.369901,59.29673 -9.483849,0 a 6.8582487,6.8582487 0 0 0 -6.858248,6.858248 l 0,0.845021 23.200346,0 0,-0.845021 A 6.8582487,6.8582487 0 0 0 29.369901,59.29673 Z"
     id="path20" />
  <circle
     cx="24.594025"
     cy="52.868538"
     r="5.3870072"
     id="circle22" />
  <path
     id="path4198"
     d="m 54.842097,59.296731 -9.483849,0 A 6.8582487,6.8582487 0 0 0 38.5,66.154979 L 38.5,67 l 23.200346,0 0,-0.845021 a 6.8582487,6.8582487 0 0 0 -6.858249,-6.858248 z"
     inkscape:connector-curvature="0" />
  <path
     inkscape:connector-curvature="0"
     d="m 80.641088,59.296731 -9.483849,0 a 6.8582487,6.8582487 0 0 0 -6.858248,6.858248 l 0,0.845021 23.200346,0 0,-0.845021 a 6.8582487,6.8582487 0 0 0 -6.858249,-6.858248 z"
     id="path4200" />
</svg>
