<svg xmlns="http://www.w3.org/2000/svg" xmlns:xlink="http://www.w3.org/1999/xlink" version="1.1" x="0px" y="0px" viewBox="0 0 673.395 235.504" style="enable-background:new 0 0 673.395 235.504;" xml:space="preserve"><g><g><ellipse transform="matrix(0.2268 -0.9739 0.9739 0.2268 198.7307 295.3228)" cx="285.364" cy="22.498" rx="22.493" ry="22.495"></ellipse><path d="M251.49,82.9c0.012-12.437,3.618-20.535,4.34-22.032c1.71-3.447,5.148-5.577,8.976-5.577c1.548,0,3.04,0.353,4.436,1.043    c4.937,2.449,6.963,8.459,4.517,13.4c-0.017,0.044-0.075,0.19-0.159,0.403c-0.29,0.756-0.564,1.597-0.807,2.487    c-0.595,2.187-1.305,5.746-1.3,10.282c0.03,4.925,0.832,9.864,2.372,14.802c1.247-9.854,3.381-19.361,4.884-27.037    c2.869-9.953-0.885-21.865-9.42-23.992c-8.537-2.129-20.912,2.508-25.947,17.15c-6.805,20.174-8.268,33.305-5.682,55.519    c2.112,10.872,7.831,15.152,14.143,16.752c2.546,8.387,5.722,22.191,5.699,38.756c-0.003,13.217-1.979,28.171-7.764,43.801    c-2.398,6.475,0.906,13.668,7.381,16.064c1.431,0.529,2.897,0.781,4.339,0.781c5.08,0,9.856-3.12,11.724-8.164    c6.955-18.782,9.323-36.775,9.321-52.482c-0.016-12.284-1.439-23.171-3.261-32.102c-0.13-0.123-0.266-0.238-0.391-0.369    C254.922,117.569,251.434,94.465,251.49,82.9z"></path><path d="M269.492,82.91c-0.003-4.664,0.704-8.361,1.37-10.811c0.333-1.224,0.659-2.134,0.874-2.691    c0.108-0.277,0.19-0.466,0.234-0.563l-0.004-0.001c1.96-3.958,0.344-8.757-3.614-10.718c-3.957-1.963-8.758-0.346-10.72,3.612    v-0.003c-0.374,0.77-4.131,8.597-4.144,21.174c-0.069,14.81,5.531,36.023,26.843,58.093c1.57,1.634,3.668,2.456,5.768,2.456    c1.994,0,3.991-0.74,5.543-2.232c3.186-3.06,3.286-8.125,0.224-11.311C273.145,110.33,269.561,93.888,269.492,82.91z"></path></g><g><ellipse transform="matrix(0.2268 -0.9739 0.9739 0.2268 137.2615 217.8945)" cx="205.864" cy="22.498" rx="22.493" ry="22.495"></ellipse><path d="M171.99,82.9c0.012-12.437,3.618-20.535,4.34-22.032c1.71-3.447,5.147-5.577,8.976-5.577c1.548,0,3.04,0.353,4.436,1.043    c4.937,2.449,6.963,8.459,4.517,13.4c-0.017,0.044-0.075,0.19-0.159,0.403c-0.29,0.756-0.563,1.597-0.807,2.487    c-0.595,2.187-1.305,5.746-1.3,10.282c0.03,4.925,0.832,9.864,2.372,14.802c1.247-9.854,3.381-19.361,4.884-27.037    c2.869-9.953-0.885-21.865-9.42-23.992c-8.537-2.129-20.912,2.508-25.947,17.15c-6.805,20.174-8.268,33.305-5.682,55.519    c2.112,10.872,7.83,15.152,14.143,16.752c2.546,8.387,5.721,22.191,5.698,38.756c-0.002,13.217-1.978,28.171-7.763,43.801    c-2.397,6.475,0.908,13.668,7.381,16.064c1.431,0.529,2.897,0.781,4.339,0.781c5.081,0,9.856-3.12,11.726-8.164    c6.955-18.782,9.32-36.775,9.318-52.482c-0.016-12.285-1.439-23.172-3.261-32.103c-0.13-0.123-0.265-0.238-0.39-0.368    C175.422,117.569,171.934,94.465,171.99,82.9z M169.242,127.384c0.001,0,0.001,0.001,0.001,0.001S169.243,127.384,169.242,127.384    z"></path><path d="M189.992,82.91c-0.003-4.664,0.704-8.361,1.37-10.811c0.333-1.224,0.659-2.134,0.874-2.691    c0.108-0.277,0.19-0.466,0.234-0.563l-0.004-0.001c1.96-3.958,0.344-8.757-3.614-10.718c-3.957-1.963-8.758-0.346-10.72,3.612    v-0.003c-0.374,0.77-4.131,8.597-4.144,21.174c-0.069,14.81,5.531,36.023,26.843,58.093c1.57,1.634,3.668,2.456,5.768,2.456    c1.994,0,3.991-0.74,5.543-2.232c3.186-3.06,3.286-8.125,0.224-11.311C193.645,110.33,190.061,93.888,189.992,82.91z"></path></g><g><ellipse transform="matrix(0.2268 -0.9739 0.9739 0.2268 77.3386 142.4141)" cx="128.364" cy="22.498" rx="22.493" ry="22.495"></ellipse><path d="M94.49,82.9c0.012-12.437,3.618-20.535,4.34-22.032c1.71-3.447,5.148-5.577,8.976-5.577c1.548,0,3.04,0.353,4.437,1.043    c4.937,2.449,6.963,8.459,4.517,13.4c-0.017,0.044-0.075,0.19-0.159,0.403c-0.29,0.756-0.563,1.597-0.807,2.487    c-0.595,2.187-1.305,5.746-1.3,10.282c0.03,4.925,0.832,9.864,2.372,14.802c1.247-9.854,3.381-19.361,4.884-27.037    c2.869-9.953-0.885-21.865-9.42-23.992c-8.537-2.129-20.912,2.508-25.947,17.15c-6.805,20.174-8.268,33.305-5.682,55.519    c2.112,10.871,7.83,15.151,14.142,16.752c2.547,8.387,5.723,22.191,5.7,38.756c-0.002,13.217-1.979,28.171-7.765,43.801    c-2.397,6.475,0.907,13.668,7.383,16.064c1.431,0.529,2.896,0.781,4.338,0.781c5.08,0,9.857-3.12,11.725-8.164    c6.954-18.782,9.322-36.775,9.318-52.482c-0.015-12.285-1.438-23.172-3.26-32.103c-0.13-0.123-0.265-0.238-0.39-0.368    C97.922,117.569,94.434,94.465,94.49,82.9z"></path><path d="M112.492,82.91c-0.003-4.664,0.704-8.361,1.37-10.811c0.333-1.224,0.659-2.134,0.874-2.691    c0.108-0.277,0.19-0.466,0.234-0.563l-0.004-0.001c1.96-3.958,0.344-8.757-3.614-10.718c-3.957-1.963-8.758-0.346-10.72,3.612    v-0.003c-0.374,0.77-4.131,8.597-4.144,21.174c-0.069,14.81,5.531,36.023,26.843,58.093c1.57,1.634,3.668,2.456,5.768,2.456    c1.994,0,3.991-0.74,5.543-2.232c3.186-3.06,3.286-8.125,0.224-11.311C116.145,110.33,112.561,93.888,112.492,82.91z"></path></g><g><ellipse transform="matrix(0.2268 -0.9739 0.9739 0.2268 15.869 64.9853)" cx="48.863" cy="22.498" rx="22.493" ry="22.495"></ellipse><path d="M14.99,82.9c0.012-12.437,3.618-20.535,4.34-22.032c1.71-3.447,5.147-5.577,8.976-5.577c1.548,0,3.04,0.353,4.437,1.043    c4.937,2.449,6.963,8.459,4.517,13.4c-0.017,0.044-0.075,0.19-0.159,0.403c-0.29,0.756-0.563,1.597-0.807,2.487    c-0.595,2.187-1.305,5.746-1.3,10.282c0.031,4.925,0.832,9.864,2.373,14.802c1.246-9.854,3.38-19.361,4.883-27.037    c2.869-9.953-0.885-21.865-9.42-23.992c-8.537-2.129-20.912,2.508-25.947,17.15C0.076,84.004-1.386,97.134,1.2,119.349    c2.113,10.872,7.831,15.152,14.142,16.752c2.546,8.387,5.722,22.191,5.699,38.756c-0.002,13.219-1.977,28.171-7.764,43.801    c-2.399,6.475,0.906,13.668,7.381,16.064c1.432,0.529,2.899,0.781,4.34,0.781c5.08,0,9.856-3.12,11.723-8.164    c6.957-18.782,9.323-36.775,9.321-52.482c-0.015-12.284-1.44-23.171-3.261-32.102c-0.131-0.123-0.266-0.238-0.391-0.369    C18.421,117.569,14.934,94.465,14.99,82.9z"></path><path d="M32.992,82.91c-0.003-4.664,0.704-8.361,1.37-10.811c0.333-1.224,0.659-2.134,0.874-2.691    c0.108-0.277,0.19-0.466,0.234-0.563l-0.004-0.001c1.96-3.958,0.344-8.757-3.614-10.718c-3.957-1.963-8.758-0.346-10.72,3.612    v-0.003c-0.374,0.77-4.131,8.597-4.144,21.174c-0.069,14.81,5.531,36.023,26.843,58.093c1.57,1.634,3.668,2.456,5.769,2.456    c1.994,0,3.991-0.74,5.543-2.232c3.186-3.06,3.286-8.125,0.224-11.311C36.645,110.33,33.061,93.888,32.992,82.91z"></path></g><g><ellipse transform="matrix(0.483 -0.8756 0.8756 0.483 219.2556 438.6895)" cx="481.141" cy="33.663" rx="22.494" ry="22.495"></ellipse><path d="M446.462,103.126c-5.815-11.309-7.041-21.977-7.045-28.936c0.002-3.55,0.328-5.891,0.426-6.522    c0.791-4.876,4.938-8.412,9.865-8.412c0.533,0,1.074,0.043,1.605,0.131c5.41,0.872,9.127,5.991,8.283,11.407    c-0.02,0.161-0.041,0.371-0.068,0.666c-0.051,0.562-0.113,1.506-0.107,2.722c-0.004,1.74,0.121,4.252,0.633,7.221    c0.56-1.087,1.107-2.155,1.625-3.178c5.467-8.799,5.094-21.282-2.541-25.649c-7.639-4.37-20.807-3.272-29.633,9.45    c-12.033,17.564-17.012,29.804-20.563,51.885c-1.021,12.231,4.416,17.88,10.928,20.945c2.598,8.225,6.111,22.59,6.086,40.004    c-0.004,13.217-1.978,28.171-7.764,43.8c-2.396,6.475,0.906,13.666,7.383,16.064c1.43,0.529,2.896,0.78,4.338,0.781    c5.08,0,9.858-3.12,11.725-8.163c6.955-18.783,9.32-36.776,9.318-52.481c-0.027-22.584-4.81-40.462-8.08-50.084    c1.018-6.156,2.965-12.394,5.352-18.441C447.575,105.227,446.985,104.153,446.462,103.126z"></path><path d="M457.536,71.266c0.029-0.316,0.055-0.544,0.07-0.67c0.01-0.061,0.014-0.101,0.016-0.111l-0.002-0.001    c0.678-4.343-2.281-8.423-6.627-9.124c-4.359-0.707-8.467,2.256-9.172,6.62l-0.002-0.003c-0.055,0.348-0.4,2.608-0.402,6.211    c0.006,6.288,1.043,16.779,6.826,28.028c5.744,11.252,16.416,23.019,34.35,31.274c1.088,0.503,2.23,0.741,3.355,0.741    c3.021,0,5.912-1.72,7.266-4.643c1.855-4.009,0.109-8.764-3.898-10.618c-14.951-6.966-22.547-15.813-26.85-24.077    c-4.262-8.264-5.051-16.185-5.047-20.706C457.417,72.905,457.479,71.904,457.536,71.266z"></path></g><g><path d="M668.395,163.834h-18.828c2.686-3.079,4.521-7.524,4.77-14.038c-0.852-22.35-4.313-35.101-14.131-53.993    c-7.221-13.697-20.16-16.38-28.269-12.969c-6.08,2.559-8.658,10.139-7.731,17.731c2.348-2.929,3.4-5.346,3.412-5.379    c1.473-3.8,5.219-6.37,9.32-6.37c1.227,0,2.434,0.225,3.588,0.669c2.494,0.956,4.463,2.827,5.549,5.268    c1.086,2.44,1.156,5.158,0.199,7.651c-1.012,2.509-4.021,8.862-10.771,15.39c-1.133,1.107-2.563,2.37-4.27,3.676    c2.732,7.72,5.416,16.217,6.928,24.696h-28.428v-5.596H465.216v6.406h6.9l0.002,85.855h14.945v-71.801h74.746    c0.049,0.257,0.086,0.515,0.152,0.769l5.924,22.865v48.166h14.947v-0.153c2.197,1.789,4.971,2.825,7.887,2.825    c1.037,0,2.092-0.13,3.143-0.402c6.684-1.73,10.697-8.551,8.965-15.233l-12.613-48.7h15.182v2.666c0,2.762,2.238,5,5,5h3.328    l19.025,25.578l-20.397,27.42h13.293l13.75-18.484l13.75,18.484h13.293l-20.396-27.42l19.027-25.578h3.326c2.762,0,5-2.238,5-5v-5    C673.395,166.072,671.157,163.834,668.395,163.834z M639.395,206.834c-1.748,0-3.166-1.418-3.166-3.166    c0-1.75,1.418-3.167,3.166-3.167c1.75,0,3.166,1.417,3.166,3.167C642.561,205.416,641.145,206.834,639.395,206.834z     M639.395,195.475l-12.379-16.642h24.758L639.395,195.475z"></path><path d="M577.747,104.914l-3.125-2.496l-7.262,9.09c1.574,0.261,3.123,0.467,4.633,0.607L577.747,104.914z"></path><path d="M555.241,126.674l-3.092,3.869l3.125,2.496l2.873-3.595C556.993,128.718,556.007,127.774,555.241,126.674z"></path><path d="M619.807,91.351c-4.117-1.585-8.74,0.468-10.328,4.584l-0.006-0.002c-0.236,0.589-2.455,5.398-7.418,9.785    c-5.014,4.378-12.469,8.6-24.959,8.654c-3.594,0-7.621-0.371-12.121-1.247c-4.336-0.846-8.537,1.985-9.381,6.324    c-0.844,4.336,1.988,8.535,6.324,9.381c5.424,1.057,10.479,1.542,15.178,1.542c0.078,0,0.158,0.001,0.236,0.001    c17.35,0,29.564-6.965,36.779-14.017c7.316-7.078,10.012-13.978,10.293-14.669C625.991,97.563,623.934,92.934,619.807,91.351z     M609.473,95.947C609.473,95.948,609.473,95.948,609.473,95.947l-0.002-0.001L609.473,95.947z"></path><rect x="530.532" y="134.311" width="51" height="2.5"></rect><path d="M557.712,75.84c0.641,0.91,3.66,0.024,8.076-2.157c4.904-2.423,11.535-6.445,18.564-11.394    c5.623-3.957,10.598-7.873,14.379-11.227c-3.537,4.138-8.924,9.478-15.262,14.978c-2.529,2.196-4.91,4.43-7.115,6.58    c2.748,4.354,6.994,7.796,12.291,9.455c11.857,3.711,24.477-2.892,28.189-14.747c3.713-11.857-2.893-24.479-14.748-28.189    c-11.856-3.709-24.477,2.893-28.19,14.75c-0.652,2.086-0.98,4.195-1.021,6.276c-0.676,0.52-1.338,1.034-1.98,1.542    C562.202,68.581,556.673,74.36,557.712,75.84z"></path></g><g><ellipse transform="matrix(0.2268 -0.9739 0.9739 0.2268 263.1696 376.4853)" cx="368.696" cy="22.498" rx="22.493" ry="22.495"></ellipse><path d="M347.03,55.353c0.375-0.042,0.743-0.062,1.112-0.062c5.073,0,9.327,3.793,9.92,8.83c0.008,0.049,0.015,0.105,0.022,0.171    l0.007,0.047c0.024,0.147,0.057,0.358,0.105,0.629c0.194,1.062,0.446,2.213,0.753,3.413c0.442,1.742,1.136,4.146,2.172,7.069    c0.336-1.653,0.661-3.258,0.959-4.779c2.869-9.953-0.885-21.865-9.42-23.992c-8.537-2.129-20.912,2.508-25.947,17.15    c-6.805,20.174-8.268,33.306-5.682,55.52c2.112,10.871,7.83,15.151,14.142,16.752c2.546,8.387,5.722,22.193,5.7,38.758    c-0.004,13.219-1.978,28.171-7.765,43.799c-2.397,6.475,0.908,13.667,7.383,16.064c1.431,0.529,2.897,0.78,4.338,0.78    c5.08,0.001,9.857-3.119,11.726-8.163c6.954-18.783,9.319-36.774,9.317-52.48c-0.031-25.045-5.91-44.311-9.088-52.937    c-0.496-3.705-0.645-7.547-0.568-11.431c-16.2-25.753-18.008-43.9-18.029-44.148C337.588,60.915,341.551,55.963,347.03,55.353z"></path><path d="M361.849,82.766c-2.571-5.952-4.031-10.707-4.838-13.893c-0.404-1.592-0.646-2.791-0.782-3.551    c-0.068-0.381-0.109-0.648-0.132-0.802c-0.006-0.053-0.012-0.091-0.016-0.116c-0.491-4.388-4.442-7.549-8.829-7.064    c-4.392,0.487-7.558,4.44-7.072,8.83c0.114,1.323,4.292,34.919,42.684,74.833c1.569,1.634,3.667,2.456,5.768,2.456    c1.995,0,3.991-0.741,5.543-2.231c3.185-3.062,3.285-8.126,0.227-11.312C376.576,111.365,366.997,94.67,361.849,82.766z"></path></g></g></svg>