<?xml version="1.0" encoding="UTF-8" standalone="no"?>
<svg
   xmlns:dc="http://purl.org/dc/elements/1.1/"
   xmlns:cc="http://creativecommons.org/ns#"
   xmlns:rdf="http://www.w3.org/1999/02/22-rdf-syntax-ns#"
   xmlns:svg="http://www.w3.org/2000/svg"
   xmlns="http://www.w3.org/2000/svg"
   xmlns:sodipodi="http://sodipodi.sourceforge.net/DTD/sodipodi-0.dtd"
   xmlns:inkscape="http://www.inkscape.org/namespaces/inkscape"
   version="1.1"
   x="0px"
   y="0px"
   viewBox="0 0 699.99998 700.00001"
   xml:space="preserve"
   id="svg2"
   inkscape:version="0.91 r13725"
   sodipodi:docname="queue_bubble.svg"
   width="700"
   height="700"><metadata
     id="metadata72"><rdf:RDF><cc:Work
         rdf:about=""><dc:format>image/svg+xml</dc:format><dc:type
           rdf:resource="http://purl.org/dc/dcmitype/StillImage" /><dc:title></dc:title></cc:Work></rdf:RDF></metadata><defs
     id="defs70" /><sodipodi:namedview
     pagecolor="#ffffff"
     bordercolor="#666666"
     borderopacity="1"
     objecttolerance="10"
     gridtolerance="10"
     guidetolerance="10"
     inkscape:pageopacity="0"
     inkscape:pageshadow="2"
     inkscape:window-width="1356"
     inkscape:window-height="763"
     id="namedview68"
     showgrid="false"
     inkscape:zoom="0.46035387"
     inkscape:cx="336.69751"
     inkscape:cy="465.31072"
     inkscape:window-x="0"
     inkscape:window-y="0"
     inkscape:window-maximized="0"
     inkscape:current-layer="svg2" /><circle
     style="fill:#ffff80;fill-rule:evenodd;stroke:none;stroke-width:1px;stroke-linecap:butt;stroke-linejoin:miter;stroke-opacity:1;fill-opacity:1"
     id="path4200"
     cx="349.08041"
     cy="352.47971"
     r="347.55875" /><g
     id="g4"
     transform="matrix(0.79707037,0,0,0.79707037,88.24041,260.65134)"><g
       id="g6"><ellipse
         transform="matrix(0.2268,-0.9739,0.9739,0.2268,198.7307,295.3228)"
         cx="285.36401"
         cy="22.497999"
         rx="22.493"
         ry="22.495001"
         id="ellipse8" /><path
         d="m 251.49,82.9 c 0.012,-12.437 3.618,-20.535 4.34,-22.032 1.71,-3.447 5.148,-5.577 8.976,-5.577 1.548,0 3.04,0.353 4.436,1.043 4.937,2.449 6.963,8.459 4.517,13.4 -0.017,0.044 -0.075,0.19 -0.159,0.403 -0.29,0.756 -0.564,1.597 -0.807,2.487 -0.595,2.187 -1.305,5.746 -1.3,10.282 0.03,4.925 0.832,9.864 2.372,14.802 1.247,-9.854 3.381,-19.361 4.884,-27.037 2.869,-9.953 -0.885,-21.865 -9.42,-23.992 -8.537,-2.129 -20.912,2.508 -25.947,17.15 -6.805,20.174 -8.268,33.305 -5.682,55.519 2.112,10.872 7.831,15.152 14.143,16.752 2.546,8.387 5.722,22.191 5.699,38.756 -0.003,13.217 -1.979,28.171 -7.764,43.801 -2.398,6.475 0.906,13.668 7.381,16.064 1.431,0.529 2.897,0.781 4.339,0.781 5.08,0 9.856,-3.12 11.724,-8.164 6.955,-18.782 9.323,-36.775 9.321,-52.482 -0.016,-12.284 -1.439,-23.171 -3.261,-32.102 -0.13,-0.123 -0.266,-0.238 -0.391,-0.369 C 254.922,117.569 251.434,94.465 251.49,82.9 Z"
         id="path10"
         inkscape:connector-curvature="0" /><path
         d="m 269.492,82.91 c -0.003,-4.664 0.704,-8.361 1.37,-10.811 0.333,-1.224 0.659,-2.134 0.874,-2.691 0.108,-0.277 0.19,-0.466 0.234,-0.563 l -0.004,-0.001 c 1.96,-3.958 0.344,-8.757 -3.614,-10.718 -3.957,-1.963 -8.758,-0.346 -10.72,3.612 l 0,-0.003 c -0.374,0.77 -4.131,8.597 -4.144,21.174 -0.069,14.81 5.531,36.023 26.843,58.093 1.57,1.634 3.668,2.456 5.768,2.456 1.994,0 3.991,-0.74 5.543,-2.232 3.186,-3.06 3.286,-8.125 0.224,-11.311 C 273.145,110.33 269.561,93.888 269.492,82.91 Z"
         id="path12"
         inkscape:connector-curvature="0" /></g><g
       id="g14"><ellipse
         transform="matrix(0.2268,-0.9739,0.9739,0.2268,137.2615,217.8945)"
         cx="205.864"
         cy="22.497999"
         rx="22.493"
         ry="22.495001"
         id="ellipse16" /><path
         d="m 171.99,82.9 c 0.012,-12.437 3.618,-20.535 4.34,-22.032 1.71,-3.447 5.147,-5.577 8.976,-5.577 1.548,0 3.04,0.353 4.436,1.043 4.937,2.449 6.963,8.459 4.517,13.4 -0.017,0.044 -0.075,0.19 -0.159,0.403 -0.29,0.756 -0.563,1.597 -0.807,2.487 -0.595,2.187 -1.305,5.746 -1.3,10.282 0.03,4.925 0.832,9.864 2.372,14.802 1.247,-9.854 3.381,-19.361 4.884,-27.037 2.869,-9.953 -0.885,-21.865 -9.42,-23.992 -8.537,-2.129 -20.912,2.508 -25.947,17.15 -6.805,20.174 -8.268,33.305 -5.682,55.519 2.112,10.872 7.83,15.152 14.143,16.752 2.546,8.387 5.721,22.191 5.698,38.756 -0.002,13.217 -1.978,28.171 -7.763,43.801 -2.397,6.475 0.908,13.668 7.381,16.064 1.431,0.529 2.897,0.781 4.339,0.781 5.081,0 9.856,-3.12 11.726,-8.164 6.955,-18.782 9.32,-36.775 9.318,-52.482 -0.016,-12.285 -1.439,-23.172 -3.261,-32.103 -0.13,-0.123 -0.265,-0.238 -0.39,-0.368 C 175.422,117.569 171.934,94.465 171.99,82.9 Z m -2.748,44.484 c 0.001,0 0.001,0.001 0.001,0.001 0,0 0,-0.001 -0.001,-0.001 z"
         id="path18"
         inkscape:connector-curvature="0" /><path
         d="m 189.992,82.91 c -0.003,-4.664 0.704,-8.361 1.37,-10.811 0.333,-1.224 0.659,-2.134 0.874,-2.691 0.108,-0.277 0.19,-0.466 0.234,-0.563 l -0.004,-0.001 c 1.96,-3.958 0.344,-8.757 -3.614,-10.718 -3.957,-1.963 -8.758,-0.346 -10.72,3.612 l 0,-0.003 c -0.374,0.77 -4.131,8.597 -4.144,21.174 -0.069,14.81 5.531,36.023 26.843,58.093 1.57,1.634 3.668,2.456 5.768,2.456 1.994,0 3.991,-0.74 5.543,-2.232 3.186,-3.06 3.286,-8.125 0.224,-11.311 C 193.645,110.33 190.061,93.888 189.992,82.91 Z"
         id="path20"
         inkscape:connector-curvature="0" /></g><g
       id="g22"><ellipse
         transform="matrix(0.2268,-0.9739,0.9739,0.2268,77.3386,142.4141)"
         cx="128.364"
         cy="22.497999"
         rx="22.493"
         ry="22.495001"
         id="ellipse24" /><path
         d="m 94.49,82.9 c 0.012,-12.437 3.618,-20.535 4.34,-22.032 1.71,-3.447 5.148,-5.577 8.976,-5.577 1.548,0 3.04,0.353 4.437,1.043 4.937,2.449 6.963,8.459 4.517,13.4 -0.017,0.044 -0.075,0.19 -0.159,0.403 -0.29,0.756 -0.563,1.597 -0.807,2.487 -0.595,2.187 -1.305,5.746 -1.3,10.282 0.03,4.925 0.832,9.864 2.372,14.802 1.247,-9.854 3.381,-19.361 4.884,-27.037 2.869,-9.953 -0.885,-21.865 -9.42,-23.992 -8.537,-2.129 -20.912,2.508 -25.947,17.15 -6.805,20.174 -8.268,33.305 -5.682,55.519 2.112,10.871 7.83,15.151 14.142,16.752 2.547,8.387 5.723,22.191 5.7,38.756 -0.002,13.217 -1.979,28.171 -7.765,43.801 -2.397,6.475 0.907,13.668 7.383,16.064 1.431,0.529 2.896,0.781 4.338,0.781 5.08,0 9.857,-3.12 11.725,-8.164 6.954,-18.782 9.322,-36.775 9.318,-52.482 -0.015,-12.285 -1.438,-23.172 -3.26,-32.103 -0.13,-0.123 -0.265,-0.238 -0.39,-0.368 C 97.922,117.569 94.434,94.465 94.49,82.9 Z"
         id="path26"
         inkscape:connector-curvature="0" /><path
         d="m 112.492,82.91 c -0.003,-4.664 0.704,-8.361 1.37,-10.811 0.333,-1.224 0.659,-2.134 0.874,-2.691 0.108,-0.277 0.19,-0.466 0.234,-0.563 l -0.004,-0.001 c 1.96,-3.958 0.344,-8.757 -3.614,-10.718 -3.957,-1.963 -8.758,-0.346 -10.72,3.612 l 0,-0.003 c -0.374,0.77 -4.131,8.597 -4.144,21.174 -0.069,14.81 5.531,36.023 26.843,58.093 1.57,1.634 3.668,2.456 5.768,2.456 1.994,0 3.991,-0.74 5.543,-2.232 3.186,-3.06 3.286,-8.125 0.224,-11.311 C 116.145,110.33 112.561,93.888 112.492,82.91 Z"
         id="path28"
         inkscape:connector-curvature="0" /></g><g
       id="g30"><ellipse
         transform="matrix(0.2268,-0.9739,0.9739,0.2268,15.869,64.9853)"
         cx="48.862999"
         cy="22.497999"
         rx="22.493"
         ry="22.495001"
         id="ellipse32" /><path
         d="m 14.99,82.9 c 0.012,-12.437 3.618,-20.535 4.34,-22.032 1.71,-3.447 5.147,-5.577 8.976,-5.577 1.548,0 3.04,0.353 4.437,1.043 4.937,2.449 6.963,8.459 4.517,13.4 -0.017,0.044 -0.075,0.19 -0.159,0.403 -0.29,0.756 -0.563,1.597 -0.807,2.487 -0.595,2.187 -1.305,5.746 -1.3,10.282 0.031,4.925 0.832,9.864 2.373,14.802 1.246,-9.854 3.38,-19.361 4.883,-27.037 C 45.119,60.718 41.365,48.806 32.83,46.679 24.293,44.55 11.918,49.187 6.883,63.829 0.076,84.004 -1.386,97.134 1.2,119.349 c 2.113,10.872 7.831,15.152 14.142,16.752 2.546,8.387 5.722,22.191 5.699,38.756 -0.002,13.219 -1.977,28.171 -7.764,43.801 -2.399,6.475 0.906,13.668 7.381,16.064 1.432,0.529 2.899,0.781 4.34,0.781 5.08,0 9.856,-3.12 11.723,-8.164 6.957,-18.782 9.323,-36.775 9.321,-52.482 -0.015,-12.284 -1.44,-23.171 -3.261,-32.102 -0.131,-0.123 -0.266,-0.238 -0.391,-0.369 C 18.421,117.569 14.934,94.465 14.99,82.9 Z"
         id="path34"
         inkscape:connector-curvature="0" /><path
         d="m 32.992,82.91 c -0.003,-4.664 0.704,-8.361 1.37,-10.811 0.333,-1.224 0.659,-2.134 0.874,-2.691 0.108,-0.277 0.19,-0.466 0.234,-0.563 l -0.004,-0.001 c 1.96,-3.958 0.344,-8.757 -3.614,-10.718 -3.957,-1.963 -8.758,-0.346 -10.72,3.612 l 0,-0.003 c -0.374,0.77 -4.131,8.597 -4.144,21.174 -0.069,14.81 5.531,36.023 26.843,58.093 1.57,1.634 3.668,2.456 5.769,2.456 1.994,0 3.991,-0.74 5.543,-2.232 3.186,-3.06 3.286,-8.125 0.224,-11.311 C 36.645,110.33 33.061,93.888 32.992,82.91 Z"
         id="path36"
         inkscape:connector-curvature="0" /></g><g
       id="g38"><ellipse
         transform="matrix(0.483,-0.8756,0.8756,0.483,219.2556,438.6895)"
         cx="481.14099"
         cy="33.662998"
         rx="22.493999"
         ry="22.495001"
         id="ellipse40" /><path
         d="m 446.462,103.126 c -5.815,-11.309 -7.041,-21.977 -7.045,-28.936 0.002,-3.55 0.328,-5.891 0.426,-6.522 0.791,-4.876 4.938,-8.412 9.865,-8.412 0.533,0 1.074,0.043 1.605,0.131 5.41,0.872 9.127,5.991 8.283,11.407 -0.02,0.161 -0.041,0.371 -0.068,0.666 -0.051,0.562 -0.113,1.506 -0.107,2.722 -0.004,1.74 0.121,4.252 0.633,7.221 0.56,-1.087 1.107,-2.155 1.625,-3.178 5.467,-8.799 5.094,-21.282 -2.541,-25.649 -7.639,-4.37 -20.807,-3.272 -29.633,9.45 -12.033,17.564 -17.012,29.804 -20.563,51.885 -1.021,12.231 4.416,17.88 10.928,20.945 2.598,8.225 6.111,22.59 6.086,40.004 -0.004,13.217 -1.978,28.171 -7.764,43.8 -2.396,6.475 0.906,13.666 7.383,16.064 1.43,0.529 2.896,0.78 4.338,0.781 5.08,0 9.858,-3.12 11.725,-8.163 6.955,-18.783 9.32,-36.776 9.318,-52.481 -0.027,-22.584 -4.81,-40.462 -8.08,-50.084 1.018,-6.156 2.965,-12.394 5.352,-18.441 -0.653,-1.109 -1.243,-2.183 -1.766,-3.21 z"
         id="path42"
         inkscape:connector-curvature="0" /><path
         d="m 457.536,71.266 c 0.029,-0.316 0.055,-0.544 0.07,-0.67 0.01,-0.061 0.014,-0.101 0.016,-0.111 l -0.002,-0.001 c 0.678,-4.343 -2.281,-8.423 -6.627,-9.124 -4.359,-0.707 -8.467,2.256 -9.172,6.62 l -0.002,-0.003 c -0.055,0.348 -0.4,2.608 -0.402,6.211 0.006,6.288 1.043,16.779 6.826,28.028 5.744,11.252 16.416,23.019 34.35,31.274 1.088,0.503 2.23,0.741 3.355,0.741 3.021,0 5.912,-1.72 7.266,-4.643 1.855,-4.009 0.109,-8.764 -3.898,-10.618 -14.951,-6.966 -22.547,-15.813 -26.85,-24.077 -4.262,-8.264 -5.051,-16.185 -5.047,-20.706 -0.002,-1.282 0.06,-2.283 0.117,-2.921 z"
         id="path44"
         inkscape:connector-curvature="0" /></g><g
       id="g46"><path
         d="m 668.395,163.834 -18.828,0 c 2.686,-3.079 4.521,-7.524 4.77,-14.038 -0.852,-22.35 -4.313,-35.101 -14.131,-53.993 -7.221,-13.697 -20.16,-16.38 -28.269,-12.969 -6.08,2.559 -8.658,10.139 -7.731,17.731 2.348,-2.929 3.4,-5.346 3.412,-5.379 1.473,-3.8 5.219,-6.37 9.32,-6.37 1.227,0 2.434,0.225 3.588,0.669 2.494,0.956 4.463,2.827 5.549,5.268 1.086,2.44 1.156,5.158 0.199,7.651 -1.012,2.509 -4.021,8.862 -10.771,15.39 -1.133,1.107 -2.563,2.37 -4.27,3.676 2.732,7.72 5.416,16.217 6.928,24.696 l -28.428,0 0,-5.596 -124.517,0 0,6.406 6.9,0 0.002,85.855 14.945,0 0,-71.801 74.746,0 c 0.049,0.257 0.086,0.515 0.152,0.769 l 5.924,22.865 0,48.166 14.947,0 0,-0.153 c 2.197,1.789 4.971,2.825 7.887,2.825 1.037,0 2.092,-0.13 3.143,-0.402 6.684,-1.73 10.697,-8.551 8.965,-15.233 l -12.613,-48.7 15.182,0 0,2.666 c 0,2.762 2.238,5 5,5 l 3.328,0 19.025,25.578 -20.397,27.42 13.293,0 13.75,-18.484 13.75,18.484 13.293,0 -20.396,-27.42 19.027,-25.578 3.326,0 c 2.762,0 5,-2.238 5,-5 l 0,-5 c 0,-2.761 -2.238,-4.999 -5,-4.999 z m -29,43 c -1.748,0 -3.166,-1.418 -3.166,-3.166 0,-1.75 1.418,-3.167 3.166,-3.167 1.75,0 3.166,1.417 3.166,3.167 0,1.748 -1.416,3.166 -3.166,3.166 z m 0,-11.359 -12.379,-16.642 24.758,0 -12.379,16.642 z"
         id="path48"
         inkscape:connector-curvature="0" /><path
         d="m 577.747,104.914 -3.125,-2.496 -7.262,9.09 c 1.574,0.261 3.123,0.467 4.633,0.607 l 5.754,-7.201 z"
         id="path50"
         inkscape:connector-curvature="0" /><path
         d="m 555.241,126.674 -3.092,3.869 3.125,2.496 2.873,-3.595 c -1.154,-0.726 -2.14,-1.67 -2.906,-2.77 z"
         id="path52"
         inkscape:connector-curvature="0" /><path
         d="m 619.807,91.351 c -4.117,-1.585 -8.74,0.468 -10.328,4.584 l -0.006,-0.002 c -0.236,0.589 -2.455,5.398 -7.418,9.785 -5.014,4.378 -12.469,8.6 -24.959,8.654 -3.594,0 -7.621,-0.371 -12.121,-1.247 -4.336,-0.846 -8.537,1.985 -9.381,6.324 -0.844,4.336 1.988,8.535 6.324,9.381 5.424,1.057 10.479,1.542 15.178,1.542 0.078,0 0.158,10e-4 0.236,10e-4 17.35,0 29.564,-6.965 36.779,-14.017 7.316,-7.078 10.012,-13.978 10.293,-14.669 1.587,-4.124 -0.47,-8.753 -4.597,-10.336 z m -10.334,4.596 c 0,10e-4 0,10e-4 0,0 l -0.002,-0.001 0.002,0.001 z"
         id="path54"
         inkscape:connector-curvature="0" /><rect
         x="530.53198"
         y="134.311"
         width="51"
         height="2.5"
         id="rect56" /><path
         d="m 557.712,75.84 c 0.641,0.91 3.66,0.024 8.076,-2.157 4.904,-2.423 11.535,-6.445 18.564,-11.394 5.623,-3.957 10.598,-7.873 14.379,-11.227 -3.537,4.138 -8.924,9.478 -15.262,14.978 -2.529,2.196 -4.91,4.43 -7.115,6.58 2.748,4.354 6.994,7.796 12.291,9.455 11.857,3.711 24.477,-2.892 28.189,-14.747 3.713,-11.857 -2.893,-24.479 -14.748,-28.189 -11.856,-3.709 -24.477,2.893 -28.19,14.75 -0.652,2.086 -0.98,4.195 -1.021,6.276 -0.676,0.52 -1.338,1.034 -1.98,1.542 -8.693,6.874 -14.222,12.653 -13.183,14.133 z"
         id="path58"
         inkscape:connector-curvature="0" /></g><g
       id="g60"><ellipse
         transform="matrix(0.2268,-0.9739,0.9739,0.2268,263.1696,376.4853)"
         cx="368.69601"
         cy="22.497999"
         rx="22.493"
         ry="22.495001"
         id="ellipse62" /><path
         d="m 347.03,55.353 c 0.375,-0.042 0.743,-0.062 1.112,-0.062 5.073,0 9.327,3.793 9.92,8.83 0.008,0.049 0.015,0.105 0.022,0.171 l 0.007,0.047 c 0.024,0.147 0.057,0.358 0.105,0.629 0.194,1.062 0.446,2.213 0.753,3.413 0.442,1.742 1.136,4.146 2.172,7.069 0.336,-1.653 0.661,-3.258 0.959,-4.779 2.869,-9.953 -0.885,-21.865 -9.42,-23.992 -8.537,-2.129 -20.912,2.508 -25.947,17.15 -6.805,20.174 -8.268,33.306 -5.682,55.52 2.112,10.871 7.83,15.151 14.142,16.752 2.546,8.387 5.722,22.193 5.7,38.758 -0.004,13.219 -1.978,28.171 -7.765,43.799 -2.397,6.475 0.908,13.667 7.383,16.064 1.431,0.529 2.897,0.78 4.338,0.78 5.08,10e-4 9.857,-3.119 11.726,-8.163 6.954,-18.783 9.319,-36.774 9.317,-52.48 -0.031,-25.045 -5.91,-44.311 -9.088,-52.937 -0.496,-3.705 -0.645,-7.547 -0.568,-11.431 -16.2,-25.753 -18.008,-43.9 -18.029,-44.148 -0.599,-5.428 3.364,-10.38 8.843,-10.99 z"
         id="path64"
         inkscape:connector-curvature="0" /><path
         d="m 361.849,82.766 c -2.571,-5.952 -4.031,-10.707 -4.838,-13.893 -0.404,-1.592 -0.646,-2.791 -0.782,-3.551 -0.068,-0.381 -0.109,-0.648 -0.132,-0.802 -0.006,-0.053 -0.012,-0.091 -0.016,-0.116 -0.491,-4.388 -4.442,-7.549 -8.829,-7.064 -4.392,0.487 -7.558,4.44 -7.072,8.83 0.114,1.323 4.292,34.919 42.684,74.833 1.569,1.634 3.667,2.456 5.768,2.456 1.995,0 3.991,-0.741 5.543,-2.231 3.185,-3.062 3.285,-8.126 0.227,-11.312 -17.826,-18.551 -27.405,-35.246 -32.553,-47.15 z"
         id="path66"
         inkscape:connector-curvature="0" /></g></g></svg>